<svg width="584" height="93" viewBox="0 0 584 93" fill="none" xmlns="http://www.w3.org/2000/svg">
<g>
<path id="part2" fill-rule="evenodd" clip-rule="evenodd" d="M342.889 45.928C343.23 46.9093 343.401 47.912 343.401 48.936C343.401 49.96 343.23 50.9627 342.889 51.944C342.59 52.9253 342.121 53.8213 341.481 54.632C340.841 55.4 340.052 56.0187 339.113 56.488C338.174 56.9573 337.086 57.192 335.849 57.192C335.849 54.554 335.834 52.0725 335.819 49.5141C335.802 46.7927 335.785 43.9843 335.785 40.808C337.022 40.808 338.11 41.0427 339.049 41.512C339.988 41.9813 340.777 42.6 341.417 43.368C342.057 44.0933 342.548 44.9467 342.889 45.928ZM352.105 56.04C353.044 53.9067 353.513 51.5387 353.513 48.936C353.513 46.3333 353.044 43.9867 352.105 41.896C351.166 39.8053 349.886 38.0347 348.265 36.584C346.644 35.1333 344.766 34.024 342.633 33.256C340.5 32.488 338.217 32.104 335.785 32.104V40.808V66.024C338.217 66.024 340.5 65.6187 342.633 64.808C344.766 63.9973 346.644 62.8667 348.265 61.416C349.886 59.9227 351.166 58.1307 352.105 56.04ZM380.831 41.7041C380.361 41.5761 379.892 41.4907 379.423 41.4481C378.996 41.4054 378.569 41.3841 378.143 41.3841C376.735 41.3841 375.54 41.6401 374.559 42.1521C373.62 42.6641 372.852 43.2827 372.255 44.0081C371.7 44.7334 371.295 45.5227 371.039 46.3761C370.783 47.2294 370.655 47.9761 370.655 48.6161V65.0001H360.159V33.1281H370.271V37.7361H370.399C371.209 36.1147 372.361 34.7921 373.855 33.7681C375.348 32.7441 377.076 32.2321 379.039 32.2321C379.465 32.2321 379.871 32.2534 380.255 32.2961C380.681 32.3387 381.023 32.4027 381.279 32.4881L380.831 41.7041ZM403.518 69.8001C402.878 71.4641 402.152 72.9361 401.341 74.2161C400.573 75.5387 399.635 76.6481 398.525 77.5441C397.459 78.4827 396.179 79.1867 394.685 79.6561C393.235 80.1254 391.507 80.3601 389.501 80.3601C388.52 80.3601 387.496 80.2961 386.429 80.1681C385.405 80.0401 384.509 79.8694 383.741 79.6561L384.893 70.8241C385.405 70.9947 385.96 71.1227 386.557 71.2081C387.197 71.3361 387.773 71.4001 388.285 71.4001C389.907 71.4001 391.08 71.0161 391.805 70.2481C392.531 69.5227 393.149 68.4774 393.661 67.1121L394.685 64.4881L381.373 33.1281H393.021L400.125 53.6081H400.317L406.653 33.1281H417.789L403.518 69.8001Z" />
<path id="part1" fill-rule="evenodd" clip-rule="evenodd" d="M228.275 65V47.72C228.275 46.824 228.212 45.9706 228.083 45.16C227.955 44.3493 227.7 43.6453 227.316 43.048C226.974 42.408 226.505 41.9173 225.908 41.576C225.31 41.192 224.542 41 223.604 41C221.769 41 220.361 41.6613 219.38 42.984C218.398 44.264 217.908 45.864 217.908 47.784V65H207.411V16.616H217.908V37.16H218.036C218.761 35.88 219.913 34.7493 221.492 33.768C223.07 32.744 224.969 32.232 227.188 32.232C229.363 32.232 231.177 32.616 232.628 33.384C234.121 34.152 235.316 35.1546 236.212 36.392C237.15 37.5866 237.811 38.9733 238.195 40.552C238.622 42.1306 238.836 43.7093 238.836 45.288V65H228.275ZM246.911 33.128V65H257.408V33.128H246.911ZM257.664 25.256C258.005 24.5307 258.176 23.7627 258.176 22.952C258.176 22.1413 258.005 21.3947 257.664 20.712C257.365 19.9867 256.938 19.368 256.384 18.856C255.872 18.344 255.232 17.9387 254.464 17.64C253.738 17.3414 252.97 17.192 252.159 17.192C251.306 17.192 250.517 17.3627 249.792 17.704C249.066 18.0027 248.426 18.408 247.872 18.92C247.317 19.432 246.89 20.0507 246.592 20.776C246.293 21.4587 246.143 22.184 246.143 22.952C246.143 24.5307 246.72 25.896 247.872 27.048C249.023 28.1573 250.453 28.712 252.159 28.712C252.97 28.712 253.738 28.5627 254.464 28.264C255.232 27.9654 255.872 27.56 256.384 27.048C256.938 26.536 257.365 25.9387 257.664 25.256ZM307.301 53.16V41H314.789V33.128H307.301V24.744H296.996V33.128H291.94V41H297.06V54.44C297.06 56.1467 297.253 57.704 297.637 59.112C298.021 60.4774 298.639 61.672 299.492 62.696C300.388 63.6774 301.562 64.4454 303.013 65C304.463 65.512 306.255 65.768 308.388 65.768C309.498 65.768 310.607 65.6614 311.716 65.448C312.826 65.2774 313.743 65.064 314.469 64.808L314.341 57.128C313.957 57.2987 313.466 57.4267 312.868 57.512C312.314 57.5974 311.78 57.64 311.268 57.64C309.775 57.64 308.73 57.2774 308.133 56.552C307.578 55.784 307.301 54.6534 307.301 53.16ZM332.521 41.512C333.46 41.0427 334.548 40.808 335.785 40.808V57.1918C334.574 57.1838 333.507 56.9492 332.585 56.488C331.646 56.0187 330.857 55.4 330.217 54.632C329.577 53.8213 329.086 52.9253 328.745 51.944C328.446 50.9627 328.297 49.96 328.297 48.936C328.297 47.912 328.446 46.9093 328.745 45.928C329.086 44.9467 329.556 44.0933 330.153 43.368C330.793 42.6 331.582 41.9813 332.521 41.512ZM335.847 57.192C335.842 56.2861 335.829 52.5671 335.816 48.8828L335.816 48.7526L335.816 48.7309L335.816 48.7009C335.8 44.1347 335.785 39.6939 335.785 40.808V32.104C333.396 32.104 331.113 32.488 328.937 33.256C326.804 34.024 324.926 35.1333 323.305 36.584C321.726 38.0347 320.468 39.8053 319.529 41.896C318.59 43.9867 318.121 46.3333 318.121 48.936C318.121 51.5387 318.59 53.9067 319.529 56.04C320.468 58.1307 321.726 59.9227 323.305 61.416C324.926 62.8667 326.804 63.9973 328.937 64.808C331.113 65.6187 333.396 66.024 335.785 66.024V57.1918L335.847 57.192ZM335.849 57.192C335.849 57.4814 335.848 57.4575 335.847 57.192H335.849ZM284.473 42.536C283.62 41.7253 282.617 41.0427 281.465 40.488C280.313 39.9333 279.097 39.656 277.817 39.656C276.836 39.656 275.918 39.848 275.065 40.232C274.254 40.616 273.849 41.2773 273.849 42.216C273.849 43.112 274.297 43.752 275.193 44.136C276.132 44.52 277.625 44.9467 279.673 45.416C280.868 45.672 282.062 46.0347 283.257 46.504C284.494 46.9733 285.604 47.592 286.585 48.36C287.566 49.128 288.356 50.0667 288.953 51.176C289.55 52.2853 289.849 53.608 289.849 55.144C289.849 57.1493 289.444 58.856 288.633 60.264C287.822 61.6293 286.756 62.7387 285.433 63.592C284.153 64.4453 282.702 65.064 281.081 65.448C279.46 65.832 277.838 66.024 276.217 66.024C273.614 66.024 271.054 65.6187 268.537 64.808C266.062 63.9547 263.993 62.7173 262.329 61.096L268.217 54.888C269.156 55.912 270.308 56.7653 271.673 57.448C273.038 58.1307 274.489 58.472 276.025 58.472C276.878 58.472 277.71 58.28 278.521 57.896C279.374 57.4693 279.801 56.744 279.801 55.72C279.801 54.7387 279.289 54.0133 278.265 53.544C277.241 53.0747 275.641 52.584 273.465 52.072C272.356 51.816 271.246 51.4747 270.137 51.048C269.028 50.6213 268.025 50.0453 267.129 49.32C266.276 48.5947 265.572 47.6987 265.017 46.632C264.462 45.5653 264.185 44.2853 264.185 42.792C264.185 40.872 264.59 39.2507 265.401 37.928C266.212 36.5627 267.257 35.4533 268.537 34.6C269.817 33.7467 271.225 33.128 272.761 32.744C274.34 32.3173 275.897 32.104 277.433 32.104C279.822 32.104 282.148 32.488 284.409 33.256C286.713 33.9813 288.654 35.0907 290.233 36.584L284.473 42.536ZM161.113 33.448C158.639 34.344 156.463 35.688 154.585 37.48L159.898 43.176C160.879 42.28 162.052 41.512 163.417 40.872C164.826 40.232 166.276 39.912 167.77 39.912C169.391 39.912 170.756 40.296 171.866 41.064C172.975 41.7893 173.529 42.9413 173.529 44.52V45.032C171.225 45.032 168.858 45.16 166.426 45.416C163.993 45.672 161.775 46.184 159.77 46.952C157.807 47.72 156.186 48.808 154.906 50.216C153.668 51.624 153.049 53.48 153.049 55.784C153.049 57.6613 153.412 59.24 154.137 60.52C154.863 61.8 155.78 62.824 156.889 63.592C158.041 64.36 159.3 64.9147 160.665 65.256C162.031 65.5973 163.354 65.768 164.633 65.768C166.553 65.768 168.324 65.4053 169.945 64.68C171.609 63.9547 172.847 62.9307 173.658 61.608H173.85V65H183.449V48.936C183.449 46.0347 183.172 43.5387 182.618 41.448C182.105 39.3147 181.273 37.5653 180.122 36.2C178.97 34.792 177.455 33.768 175.577 33.128C173.743 32.4453 171.482 32.104 168.794 32.104C166.191 32.104 163.631 32.552 161.113 33.448ZM172.505 51.112H173.85V52.2C173.85 54.2053 173.273 55.8053 172.122 57C171.012 58.152 169.391 58.728 167.258 58.728C166.746 58.728 166.212 58.6853 165.658 58.6C165.103 58.472 164.612 58.28 164.186 58.024C163.759 57.768 163.396 57.4267 163.098 57C162.842 56.5733 162.714 56.0613 162.714 55.464C162.714 54.5253 163.012 53.7787 163.609 53.224C164.207 52.6267 164.954 52.1787 165.85 51.88C166.788 51.5813 167.834 51.3893 168.986 51.304C170.18 51.176 171.353 51.112 172.505 51.112ZM136.613 65.0001V47.5921C136.613 46.6961 136.549 45.8427 136.421 45.0321C136.293 44.1787 136.058 43.4534 135.717 42.8561C135.375 42.2587 134.906 41.7894 134.309 41.4481C133.754 41.0641 133.007 40.8721 132.069 40.8721C131.173 40.8721 130.383 41.0641 129.701 41.4481C129.061 41.8321 128.506 42.3441 128.036 42.9841C127.61 43.6241 127.29 44.3707 127.077 45.2241C126.863 46.0347 126.757 46.8881 126.757 47.7841V65.0001H116.261V46.8241C116.261 44.9894 115.898 43.5387 115.173 42.4721C114.447 41.4054 113.295 40.8721 111.717 40.8721C110.053 40.8721 108.751 41.5334 107.813 42.8561C106.917 44.1787 106.469 45.8001 106.469 47.7201V65.0001H95.9085V33.1281H106.085V37.5441H106.213C106.597 36.8614 107.066 36.2001 107.621 35.5601C108.218 34.9201 108.922 34.3654 109.733 33.8961C110.543 33.3841 111.439 32.9787 112.421 32.6801C113.445 32.3814 114.554 32.2321 115.749 32.2321C118.053 32.2321 119.994 32.7014 121.573 33.6401C123.194 34.5787 124.453 35.9227 125.349 37.6721C126.415 36.0081 127.781 34.6854 129.445 33.7041C131.109 32.7227 133.135 32.2321 135.525 32.2321C137.701 32.2321 139.514 32.6374 140.965 33.4481C142.458 34.2161 143.653 35.2401 144.549 36.5201C145.445 37.7574 146.085 39.1654 146.469 40.7441C146.895 42.2801 147.109 43.7947 147.109 45.2881V65.0001H136.613ZM77.0155 45.8001C77.3995 46.7814 77.5915 47.8054 77.5915 48.8721C77.5915 49.9814 77.3995 51.0267 77.0155 52.0081C76.6741 52.9894 76.1621 53.8427 75.4795 54.5681C74.8395 55.2934 74.0288 55.8907 73.0475 56.3601C72.1088 56.7867 71.0421 57.0001 69.8475 57.0001C68.6528 57.0001 67.5861 56.7867 66.6475 56.3601C65.7515 55.8907 64.9835 55.2934 64.3435 54.5681C63.7035 53.8001 63.2128 52.9254 62.8715 51.9441C62.5301 50.9627 62.3595 49.9387 62.3595 48.8721C62.3595 47.7627 62.5301 46.7174 62.8715 45.7361C63.2128 44.7547 63.7035 43.9014 64.3435 43.1761C64.9835 42.4507 65.7515 41.8747 66.6475 41.4481C67.5861 41.0214 68.6528 40.8081 69.8475 40.8081C71.0421 40.8081 72.1088 41.0214 73.0475 41.4481C73.9861 41.8747 74.7968 42.4721 75.4795 43.2401C76.1621 43.9654 76.6741 44.8187 77.0155 45.8001ZM86.2315 70.1201C87.1275 67.8161 87.5755 65.1067 87.5755 61.9921V33.1281H77.6555V37.2241H77.5275C76.4181 35.5174 74.9461 34.2587 73.1115 33.4481C71.2768 32.6374 69.3568 32.2321 67.3515 32.2321C64.9621 32.2321 62.8288 32.7014 60.9515 33.6401C59.0741 34.5361 57.4741 35.7521 56.1515 37.2881C54.8715 38.8241 53.8901 40.5947 53.2075 42.6001C52.5248 44.6054 52.1835 46.7174 52.1835 48.9361C52.1835 51.1547 52.5248 53.2667 53.2075 55.2721C53.8901 57.2347 54.8715 58.9627 56.1515 60.4561C57.4741 61.9494 59.0741 63.1441 60.9515 64.0401C62.8288 64.8934 64.9835 65.3201 67.4155 65.3201C69.5488 65.3201 71.4475 64.9361 73.1115 64.1681C74.7755 63.4001 76.0981 62.3761 77.0795 61.0961H77.2715V63.0161C77.2715 65.7041 76.5248 67.8587 75.0315 69.4801C73.5808 71.1014 71.3195 71.9121 68.2475 71.9121C66.4555 71.9121 64.6208 71.5707 62.7435 70.8881C60.9088 70.2481 59.2235 69.2454 57.6875 67.8801L52.4395 75.3681C54.6155 76.9894 57.1755 78.2267 60.1195 79.0801C63.1061 79.9334 66.0075 80.3601 68.8235 80.3601C71.6395 80.3601 74.1995 79.9761 76.5035 79.2081C78.8501 78.4827 80.8341 77.3521 82.4555 75.8161C84.0768 74.3227 85.3355 72.4241 86.2315 70.1201ZM34.974 65V33.128H45.47V65H34.974ZM46.238 22.952C46.238 23.7627 46.0673 24.5307 45.726 25.256C45.4273 25.9387 45.0007 26.536 44.446 27.048C43.934 27.56 43.294 27.9654 42.526 28.264C41.8007 28.5627 41.0327 28.712 40.222 28.712C38.5153 28.712 37.086 28.1573 35.934 27.048C34.782 25.896 34.206 24.5307 34.206 22.952C34.206 22.184 34.3553 21.4587 34.654 20.776C34.9527 20.0507 35.3793 19.432 35.934 18.92C36.4887 18.408 37.1287 18.0027 37.854 17.704C38.5793 17.3627 39.3687 17.192 40.222 17.192C41.0327 17.192 41.8007 17.3414 42.526 17.64C43.294 17.9387 43.934 18.344 44.446 18.856C45.0007 19.368 45.4273 19.9867 45.726 20.712C46.0673 21.3947 46.238 22.1413 46.238 22.952ZM10.488 38.376V29.032H29.496V19.688H-0.328003V65H10.488V47.4H28.024V38.376H10.488Z"/>
<rect id="bar" x="335" y="16" width="2" height="65"/>
<path d="M442.699 21.8304C442.699 18.5167 445.385 15.8304 448.699 15.8304H568.182C571.496 15.8304 574.182 18.5167 574.182 21.8304V74.1112C574.182 77.4249 571.496 80.1112 568.182 80.1112H448.699C445.385 80.1112 442.699 77.4249 442.699 74.1112V21.8304Z" fill="#B774FF"/>
<path d="M535.974 42.358L533.081 50.1681H538.802L535.974 42.358ZM542.081 59.0388L540.313 54.5713H531.506L529.835 59.0388H523.857L533.403 36.2834H538.738L548.187 59.0388H542.081Z" fill="white"/>
<path d="M519.631 40.9759V59.0388H514.135V40.9759H507.707V36.2834H526.059V40.9759H519.631Z" fill="white"/>
<path d="M490.37 59.0388V36.2834H505.669V40.9438H495.673V45.2185H505.122V49.6217H495.673V54.3463H506.247V59.0388H490.37Z" fill="white"/>
<path d="M481.241 51.9037C481.241 50.9609 480.887 50.3074 480.18 49.9431C479.473 49.5788 478.53 49.3967 477.352 49.3967H474.298V54.6035H477.384C477.812 54.6035 478.252 54.5713 478.702 54.507C479.173 54.4213 479.591 54.2821 479.955 54.0892C480.341 53.8964 480.651 53.6285 480.887 53.2857C481.123 52.9214 481.241 52.4608 481.241 51.9037ZM480.501 42.8722C480.501 42.1009 480.202 41.5438 479.602 41.2009C479.023 40.8367 478.155 40.6545 476.998 40.6545H474.298V45.347H477.255C478.284 45.347 479.077 45.1435 479.634 44.7364C480.212 44.3078 480.501 43.6864 480.501 42.8722ZM486.737 52.4179C486.737 53.6607 486.49 54.7106 485.997 55.5677C485.505 56.4033 484.851 57.0783 484.037 57.5925C483.223 58.1068 482.291 58.4817 481.241 58.7174C480.212 58.9317 479.152 59.0388 478.059 59.0388H468.995V36.2834H478.059C478.937 36.2834 479.837 36.3799 480.759 36.5727C481.68 36.7441 482.516 37.0548 483.266 37.5048C484.015 37.9333 484.626 38.5226 485.098 39.2725C485.569 40.0224 485.805 40.9759 485.805 42.133C485.805 43.3972 485.462 44.4471 484.776 45.2827C484.09 46.097 483.191 46.6862 482.076 47.0505V47.1147C482.719 47.2219 483.319 47.4254 483.876 47.7254C484.455 48.004 484.948 48.3682 485.355 48.8182C485.783 49.2682 486.115 49.7931 486.351 50.3931C486.608 50.993 486.737 51.668 486.737 52.4179Z" fill="white"/>
</g>
</svg>
