<svg width="446" height="79" viewBox="0 0 446 79" fill="none" xmlns="http://www.w3.org/2000/svg">
    <g clip-path="url(#clip0_68_164881)">
        <path id="history"
            d="M220.696 31.384C222.701 31.384 224.408 31.7467 225.816 32.472C227.267 33.1547 228.44 34.072 229.336 35.224C230.275 36.376 230.957 37.6987 231.384 39.192C231.811 40.6853 232.024 42.2213 232.024 43.8V63H224.344V46.104C224.344 45.208 224.28 44.2907 224.152 43.352C224.024 42.3707 223.747 41.496 223.32 40.728C222.936 39.9173 222.36 39.256 221.592 38.744C220.867 38.232 219.885 37.976 218.648 37.976C217.411 37.976 216.344 38.2107 215.448 38.68C214.552 39.1493 213.805 39.7893 213.208 40.6C212.611 41.368 212.163 42.2427 211.864 43.224C211.565 44.2053 211.416 45.208 211.416 46.232V63H203.736V14.616H211.416V36.568H211.544C211.843 35.928 212.269 35.3093 212.824 34.712C213.421 34.072 214.104 33.5173 214.872 33.048C215.64 32.536 216.515 32.1307 217.496 31.832C218.477 31.5333 219.544 31.384 220.696 31.384ZM240.023 21.848C240.023 20.6107 240.471 19.544 241.367 18.648C242.306 17.7093 243.479 17.24 244.887 17.24C246.295 17.24 247.468 17.688 248.407 18.584C249.388 19.4373 249.879 20.5253 249.879 21.848C249.879 23.1707 249.388 24.28 248.407 25.176C247.468 26.0293 246.295 26.456 244.887 26.456C243.479 26.456 242.306 26.008 241.367 25.112C240.471 24.1733 240.023 23.0853 240.023 21.848ZM241.111 32.28H248.791V63H241.111V32.28ZM274.94 40.472C274.257 39.576 273.319 38.808 272.124 38.168C270.929 37.4853 269.628 37.144 268.22 37.144C266.983 37.144 265.852 37.4 264.828 37.912C263.804 38.424 263.292 39.2773 263.292 40.472C263.292 41.6667 263.847 42.52 264.956 43.032C266.108 43.5013 267.772 43.992 269.948 44.504C271.1 44.76 272.252 45.1013 273.404 45.528C274.599 45.9547 275.665 46.5307 276.604 47.256C277.585 47.9387 278.375 48.8133 278.972 49.88C279.569 50.904 279.868 52.1627 279.868 53.656C279.868 55.5333 279.505 57.1333 278.78 58.456C278.097 59.736 277.159 60.7813 275.964 61.592C274.812 62.4027 273.447 62.9787 271.868 63.32C270.332 63.704 268.732 63.896 267.068 63.896C264.679 63.896 262.353 63.4693 260.092 62.616C257.831 61.72 255.953 60.4613 254.46 58.84L259.516 54.104C260.369 55.2133 261.479 56.1307 262.844 56.856C264.209 57.5813 265.724 57.944 267.388 57.944C267.943 57.944 268.497 57.88 269.052 57.752C269.649 57.624 270.183 57.432 270.652 57.176C271.164 56.8773 271.569 56.4933 271.868 56.024C272.167 55.5547 272.316 54.9787 272.316 54.296C272.316 53.016 271.719 52.0987 270.524 51.544C269.372 50.9893 267.623 50.4347 265.276 49.88C264.124 49.624 262.993 49.304 261.884 48.92C260.817 48.4933 259.857 47.96 259.004 47.32C258.151 46.6373 257.468 45.8053 256.956 44.824C256.444 43.8427 256.188 42.6267 256.188 41.176C256.188 39.4693 256.529 37.9973 257.212 36.76C257.937 35.5227 258.876 34.52 260.028 33.752C261.18 32.9413 262.481 32.344 263.932 31.96C265.383 31.576 266.876 31.384 268.412 31.384C270.631 31.384 272.785 31.768 274.876 32.536C277.009 33.304 278.695 34.4773 279.932 36.056L274.94 40.472ZM282.13 38.424V32.28H287.506V23.384H295.058V32.28H302.738V38.424H295.058V52.696C295.058 54.0613 295.292 55.192 295.762 56.088C296.274 56.984 297.383 57.432 299.09 57.432C299.602 57.432 300.156 57.3893 300.753 57.304C301.351 57.176 301.884 57.0053 302.354 56.792L302.61 62.808C301.927 63.064 301.116 63.256 300.178 63.384C299.239 63.5547 298.343 63.64 297.49 63.64C295.442 63.64 293.778 63.3627 292.498 62.808C291.218 62.2107 290.194 61.4213 289.426 60.44C288.7 59.416 288.188 58.264 287.89 56.984C287.634 55.6613 287.506 54.2533 287.506 52.76V38.424H282.13ZM314.312 47.512C314.312 48.7067 314.482 49.9013 314.824 51.096C315.208 52.2907 315.762 53.3573 316.488 54.296C317.213 55.2347 318.13 56.0027 319.24 56.6C320.349 57.1973 321.672 57.496 323.208 57.496C324.744 57.496 326.066 57.1973 327.176 56.6C328.285 56.0027 329.202 55.2347 329.928 54.296C330.653 53.3573 331.186 52.2907 331.528 51.096C331.912 49.9013 332.104 48.7067 332.104 47.512C332.104 46.3173 331.912 45.144 331.528 43.992C331.186 42.7973 330.653 41.7307 329.928 40.792C329.202 39.8533 328.285 39.1067 327.176 38.552C326.066 37.9547 324.744 37.656 323.208 37.656C321.672 37.656 320.349 37.9547 319.24 38.552C318.13 39.1067 317.213 39.8533 316.488 40.792C315.762 41.7307 315.208 42.7973 314.824 43.992C314.482 45.144 314.312 46.3173 314.312 47.512ZM306.504 47.512C306.504 45.08 306.93 42.8827 307.784 40.92C308.68 38.9147 309.874 37.208 311.368 35.8C312.861 34.392 314.632 33.304 316.68 32.536C318.728 31.768 320.904 31.384 323.208 31.384C325.512 31.384 327.688 31.768 329.736 32.536C331.784 33.304 333.554 34.392 335.048 35.8C336.541 37.208 337.714 38.9147 338.568 40.92C339.464 42.8827 339.912 45.08 339.912 47.512C339.912 49.944 339.464 52.1627 338.568 54.168C337.714 56.1733 336.541 57.9013 335.048 59.352C333.554 60.76 331.784 61.8693 329.736 62.68C327.688 63.4907 325.512 63.896 323.208 63.896C320.904 63.896 318.728 63.4907 316.68 62.68C314.632 61.8693 312.861 60.76 311.368 59.352C309.874 57.9013 308.68 56.1733 307.784 54.168C306.93 52.1627 306.504 49.944 306.504 47.512ZM347.358 32.28H354.718V37.4H354.846C355.699 35.608 356.894 34.1573 358.43 33.048C359.966 31.9387 361.758 31.384 363.806 31.384C364.105 31.384 364.425 31.4053 364.766 31.448C365.107 31.448 365.406 31.4907 365.662 31.576V38.616C365.15 38.488 364.702 38.4027 364.318 38.36C363.977 38.3173 363.635 38.296 363.294 38.296C361.545 38.296 360.137 38.616 359.07 39.256C358.003 39.896 357.171 40.664 356.574 41.56C355.977 42.456 355.571 43.3733 355.358 44.312C355.145 45.2507 355.038 45.9973 355.038 46.552V63H347.358V32.28ZM366.062 32.28H374.575L383.151 54.616H383.279L390.895 32.28H398.895L384.367 69.592C383.812 71 383.215 72.2373 382.575 73.304C381.935 74.4133 381.167 75.3307 380.271 76.056C379.375 76.824 378.308 77.4 377.071 77.784C375.876 78.168 374.425 78.36 372.719 78.36C372.079 78.36 371.417 78.3173 370.735 78.232C370.095 78.1893 369.433 78.0827 368.751 77.912L369.391 71.256C369.903 71.4267 370.393 71.5333 370.863 71.576C371.375 71.6613 371.844 71.704 372.271 71.704C373.081 71.704 373.764 71.5973 374.319 71.384C374.873 71.2133 375.343 70.9147 375.727 70.488C376.111 70.104 376.452 69.6133 376.751 69.016C377.049 68.4187 377.369 67.7147 377.711 66.904L379.247 63L366.062 32.28Z" />
        <path id="figma"
            d="M4.992 17.688H34.24V24.728H13.056V37.144H33.024V43.928H13.056V63H4.992V17.688ZM39.2105 21.848C39.2105 20.6107 39.6585 19.544 40.5545 18.648C41.4932 17.7093 42.6665 17.24 44.0745 17.24C45.4825 17.24 46.6558 17.688 47.5945 18.584C48.5758 19.4373 49.0665 20.5253 49.0665 21.848C49.0665 23.1707 48.5758 24.28 47.5945 25.176C46.6558 26.0293 45.4825 26.456 44.0745 26.456C42.6665 26.456 41.4932 26.008 40.5545 25.112C39.6585 24.1733 39.2105 23.0853 39.2105 21.848ZM40.2985 32.28H47.9785V63H40.2985V32.28ZM72.1435 37.656C70.7355 37.656 69.4768 37.912 68.3675 38.424C67.3008 38.936 66.3835 39.64 65.6155 40.536C64.8902 41.3893 64.3142 42.4133 63.8875 43.608C63.5035 44.8027 63.3115 46.0827 63.3115 47.448C63.3115 48.6853 63.5035 49.88 63.8875 51.032C64.3142 52.184 64.8902 53.2293 65.6155 54.168C66.3835 55.064 67.3008 55.7893 68.3675 56.344C69.4768 56.8987 70.7142 57.176 72.0795 57.176C73.4875 57.176 74.7462 56.92 75.8555 56.408C77.0075 55.8533 77.9675 55.128 78.7355 54.232C79.5462 53.336 80.1648 52.312 80.5915 51.16C81.0182 49.9653 81.2315 48.728 81.2315 47.448C81.2315 46.1253 81.0182 44.8667 80.5915 43.672C80.1648 42.4773 79.5462 41.432 78.7355 40.536C77.9675 39.64 77.0288 38.936 75.9195 38.424C74.8102 37.912 73.5515 37.656 72.1435 37.656ZM88.5275 32.28V60.248C88.5275 63.0213 88.1862 65.5173 87.5035 67.736C86.8208 69.9973 85.7542 71.896 84.3035 73.432C82.8955 75.0107 81.1035 76.2267 78.9275 77.08C76.7515 77.9333 74.1702 78.36 71.1835 78.36C69.9462 78.36 68.6235 78.2533 67.2155 78.04C65.8502 77.8267 64.4848 77.5067 63.1195 77.08C61.7968 76.6533 60.5168 76.12 59.2795 75.48C58.0422 74.84 56.9328 74.1147 55.9515 73.304L60.3675 67.352C61.8608 68.76 63.5462 69.8267 65.4235 70.552C67.3008 71.32 69.1995 71.704 71.1195 71.704C72.9542 71.704 74.4902 71.4267 75.7275 70.872C77.0075 70.36 78.0102 69.6347 78.7355 68.696C79.5035 67.7573 80.0368 66.648 80.3355 65.368C80.6768 64.088 80.8475 62.68 80.8475 61.144V58.904H80.7195C79.6102 60.3973 78.1808 61.5493 76.4315 62.36C74.7248 63.128 72.8048 63.512 70.6715 63.512C68.3675 63.512 66.2768 63.0853 64.3995 62.232C62.5222 61.3787 60.9222 60.2267 59.5995 58.776C58.3195 57.3253 57.3168 55.64 56.5915 53.72C55.8662 51.7573 55.5035 49.688 55.5035 47.512C55.5035 45.2933 55.8448 43.2027 56.5275 41.24C57.2528 39.2773 58.2555 37.5707 59.5355 36.12C60.8582 34.6693 62.4368 33.5173 64.2715 32.664C66.1488 31.8107 68.2395 31.384 70.5435 31.384C72.7195 31.384 74.7462 31.832 76.6235 32.728C78.5008 33.624 79.9942 35.0107 81.1035 36.888H81.2315V32.28H88.5275ZM134.405 31.384C136.41 31.384 138.117 31.7467 139.525 32.472C140.976 33.1547 142.149 34.072 143.045 35.224C143.984 36.376 144.666 37.6987 145.093 39.192C145.52 40.6853 145.733 42.2213 145.733 43.8V63H138.053V45.976C138.053 45.08 137.989 44.1413 137.861 43.16C137.733 42.1787 137.456 41.304 137.029 40.536C136.602 39.7253 136.005 39.064 135.237 38.552C134.512 38.04 133.53 37.784 132.293 37.784C131.098 37.784 130.074 38.04 129.221 38.552C128.368 39.064 127.664 39.7253 127.109 40.536C126.554 41.3467 126.149 42.264 125.893 43.288C125.637 44.2693 125.509 45.2507 125.509 46.232V63H117.829V44.44C117.829 42.52 117.36 40.9413 116.421 39.704C115.525 38.424 114.096 37.784 112.133 37.784C110.981 37.784 109.978 38.04 109.125 38.552C108.272 39.0213 107.568 39.64 107.013 40.408C106.501 41.176 106.096 42.072 105.797 43.096C105.541 44.0773 105.413 45.08 105.413 46.104V63H97.733V32.28H105.029V37.208H105.157C105.498 36.44 105.946 35.7147 106.501 35.032C107.098 34.3493 107.781 33.7307 108.549 33.176C109.36 32.6213 110.277 32.1947 111.301 31.896C112.325 31.5547 113.456 31.384 114.693 31.384C117.082 31.384 119.066 31.9173 120.645 32.984C122.224 34.0507 123.44 35.4587 124.293 37.208C125.317 35.3307 126.682 33.9013 128.389 32.92C130.096 31.896 132.101 31.384 134.405 31.384ZM173.615 48.984H171.887C170.649 48.984 169.348 49.048 167.983 49.176C166.617 49.2613 165.359 49.496 164.207 49.88C163.055 50.2213 162.095 50.7333 161.327 51.416C160.559 52.056 160.175 52.952 160.175 54.104C160.175 54.8293 160.324 55.448 160.623 55.96C160.964 56.4293 161.391 56.8133 161.903 57.112C162.415 57.4107 162.991 57.624 163.631 57.752C164.271 57.88 164.911 57.944 165.551 57.944C168.196 57.944 170.201 57.24 171.567 55.832C172.932 54.424 173.615 52.504 173.615 50.072V48.984ZM173.743 59.096H173.551C172.783 60.4613 171.545 61.592 169.839 62.488C168.132 63.3413 166.191 63.768 164.015 63.768C162.777 63.768 161.476 63.5973 160.111 63.256C158.788 62.9573 157.551 62.4453 156.399 61.72C155.289 60.952 154.351 59.9707 153.583 58.776C152.857 57.5387 152.495 56.024 152.495 54.232C152.495 51.928 153.135 50.0933 154.415 48.728C155.737 47.3627 157.423 46.3173 159.47 45.592C161.519 44.8667 163.78 44.3973 166.255 44.184C168.772 43.928 171.225 43.8 173.615 43.8V43.032C173.615 41.112 172.911 39.704 171.503 38.808C170.137 37.8693 168.495 37.4 166.575 37.4C164.953 37.4 163.396 37.7413 161.903 38.424C160.409 39.1067 159.172 39.9387 158.191 40.92L154.223 36.248C155.972 34.6267 157.977 33.4107 160.239 32.6C162.543 31.7893 164.868 31.384 167.215 31.384C169.945 31.384 172.185 31.768 173.935 32.536C175.727 33.304 177.135 34.3067 178.159 35.544C179.183 36.7813 179.887 38.168 180.271 39.704C180.697 41.24 180.911 42.776 180.911 44.312V63H173.743V59.096Z" />

        <rect x="355" width="45" height="22" rx="4" fill="#B774FF" />
        <path
            d="M386.923 9.079L385.933 11.752H387.891L386.923 9.079ZM389.013 14.788L388.408 13.259H385.394L384.822 14.788H382.776L386.043 7H387.869L391.103 14.788H389.013Z"
            fill="white" />
        <path d="M381.33 8.606V14.788H379.449V8.606H377.249V7H383.53V8.606H381.33Z" fill="white" />
        <path d="M371.315 14.788V7H376.551V8.595H373.13V10.058H376.364V11.565H373.13V13.182H376.749V14.788H371.315Z"
            fill="white" />
        <path
            d="M368.191 12.346C368.191 12.0233 368.07 11.7997 367.828 11.675C367.586 11.5503 367.263 11.488 366.86 11.488H365.815V13.27H366.871C367.018 13.27 367.168 13.259 367.322 13.237C367.483 13.2077 367.626 13.16 367.751 13.094C367.883 13.028 367.989 12.9363 368.07 12.819C368.151 12.6943 368.191 12.5367 368.191 12.346ZM367.938 9.255C367.938 8.991 367.835 8.80033 367.63 8.683C367.432 8.55833 367.135 8.496 366.739 8.496H365.815V10.102H366.827C367.179 10.102 367.45 10.0323 367.641 9.893C367.839 9.74633 367.938 9.53367 367.938 9.255ZM370.072 12.522C370.072 12.9473 369.988 13.3067 369.819 13.6C369.65 13.886 369.427 14.117 369.148 14.293C368.869 14.469 368.55 14.5973 368.191 14.678C367.839 14.7513 367.476 14.788 367.102 14.788H364V7H367.102C367.403 7 367.711 7.033 368.026 7.099C368.341 7.15767 368.627 7.264 368.884 7.418C369.141 7.56467 369.35 7.76633 369.511 8.023C369.672 8.27967 369.753 8.606 369.753 9.002C369.753 9.43467 369.636 9.794 369.401 10.08C369.166 10.3587 368.858 10.5603 368.477 10.685V10.707C368.697 10.7437 368.902 10.8133 369.093 10.916C369.291 11.0113 369.46 11.136 369.599 11.29C369.746 11.444 369.859 11.6237 369.94 11.829C370.028 12.0343 370.072 12.2653 370.072 12.522Z"
            fill="white" />
    </g>

    <linearGradient id="history_dark_gradient" x1="199" y1="14.5" x2="408.286" y2="66.0084"
        gradientUnits="userSpaceOnUse">
        <stop stop-color="#C183FF" />
        <stop offset="1" stop-color="#E3D2FF" />
    </linearGradient>

</svg>