<svg width="446" height="112" viewBox="0 0 446 112" fill="none" xmlns="http://www.w3.org/2000/svg">
<path fill-rule="evenodd" clip-rule="evenodd" d="M119.64 98.9807H117.618V107H115.719V98.9807H113.821V97.4252H115.719V95.4254C115.719 94.8598 115.78 94.3414 115.901 93.87C116.036 93.3852 116.245 92.9678 116.527 92.6177C116.824 92.2675 117.194 91.9914 117.638 91.7895C118.096 91.5875 118.648 91.4865 119.295 91.4865C119.753 91.4865 120.15 91.5336 120.487 91.6278L120.264 93.2641C120.116 93.2237 119.968 93.19 119.82 93.163C119.672 93.1361 119.504 93.1226 119.315 93.1226C118.951 93.1226 118.655 93.19 118.426 93.3246C118.211 93.4458 118.042 93.6142 117.921 93.8297C117.8 94.0451 117.719 94.2942 117.679 94.5771C117.638 94.8464 117.618 95.1292 117.618 95.4254V97.4252H119.64H119.84H121.539V95.4254C121.539 94.8598 121.599 94.3414 121.721 93.87C121.855 93.3852 122.064 92.9678 122.347 92.6177C122.643 92.2675 123.013 91.9914 123.458 91.7895C123.916 91.5875 124.468 91.4865 125.114 91.4865C125.572 91.4865 125.969 91.5336 126.306 91.6278L126.084 93.2641C125.936 93.2237 125.787 93.19 125.639 93.163C125.491 93.1361 125.323 93.1226 125.134 93.1226C124.771 93.1226 124.474 93.19 124.246 93.3246C124.03 93.4458 123.862 93.6142 123.741 93.8297C123.619 94.0451 123.539 94.2942 123.498 94.5771C123.458 94.8464 123.438 95.1292 123.438 95.4254V97.4252H125.66V98.9807H123.438V107H121.539V98.9807H119.84H119.64ZM279.014 98.9807H276.792V107H274.893V98.9807H272.994V97.4252H274.893V95.4254C274.893 94.8598 274.954 94.3414 275.075 93.87C275.21 93.3852 275.418 92.9678 275.701 92.6177C275.997 92.2675 276.368 91.9914 276.812 91.7895C277.27 91.5875 277.822 91.4865 278.468 91.4865C278.926 91.4865 279.324 91.5336 279.66 91.6278L279.438 93.2641C279.29 93.2237 279.142 93.19 278.994 93.163C278.846 93.1361 278.677 93.1226 278.489 93.1226C278.125 93.1226 277.829 93.19 277.6 93.3246C277.384 93.4458 277.216 93.6142 277.095 93.8297C276.974 94.0451 276.893 94.2942 276.852 94.5771C276.812 94.8464 276.792 95.1292 276.792 95.4254V97.4252H279.014V98.9807ZM400.47 98.9807H398.248V107H396.349V98.9807H394.451V97.4252H396.349V95.4254C396.349 94.8598 396.41 94.3414 396.531 93.87C396.666 93.3852 396.875 92.9678 397.158 92.6177C397.454 92.2675 397.824 91.9914 398.268 91.7895C398.726 91.5875 399.279 91.4865 399.925 91.4865C400.383 91.4865 400.78 91.5336 401.117 91.6278L400.895 93.2641C400.746 93.2237 400.598 93.19 400.45 93.163C400.302 93.1361 400.134 93.1226 399.945 93.1226C399.582 93.1226 399.285 93.19 399.056 93.3246C398.841 93.4458 398.672 93.6142 398.551 93.8297C398.43 94.0451 398.349 94.2942 398.309 94.5771C398.268 94.8464 398.248 95.1292 398.248 95.4254V97.4252H400.47V98.9807ZM404.571 93.971C404.571 94.3212 404.443 94.6107 404.187 94.8396C403.945 95.0686 403.648 95.183 403.298 95.183C402.948 95.183 402.652 95.0686 402.409 94.8396C402.167 94.5972 402.046 94.3077 402.046 93.971C402.046 93.6209 402.167 93.3314 402.409 93.1024C402.652 92.86 402.948 92.7388 403.298 92.7388C403.648 92.7388 403.945 92.86 404.187 93.1024C404.443 93.3314 404.571 93.6209 404.571 93.971ZM402.349 107V97.4252H404.248V107H402.349ZM407.605 107H409.504V91.7289H407.605V107ZM421.741 102.132C421.741 101.364 421.633 100.677 421.417 100.071C421.202 99.452 420.892 98.9268 420.488 98.4959C420.098 98.0649 419.613 97.735 419.034 97.5061C418.468 97.2771 417.835 97.1627 417.135 97.1627C416.435 97.1627 415.782 97.2906 415.176 97.5465C414.57 97.7889 414.044 98.1323 413.6 98.5767C413.156 99.0211 412.805 99.5597 412.55 100.193C412.307 100.812 412.186 101.492 412.186 102.233C412.186 102.987 412.314 103.674 412.57 104.293C412.826 104.913 413.176 105.445 413.62 105.889C414.065 106.32 414.597 106.657 415.216 106.899C415.835 107.141 416.509 107.263 417.236 107.263C418.084 107.263 418.852 107.108 419.539 106.798C420.239 106.475 420.845 105.977 421.357 105.303L420.024 104.233C419.754 104.637 419.384 104.98 418.913 105.263C418.441 105.546 417.882 105.687 417.236 105.687C416.819 105.687 416.421 105.613 416.044 105.465C415.681 105.317 415.357 105.115 415.075 104.859C414.792 104.59 414.563 104.28 414.388 103.93C414.226 103.566 414.139 103.182 414.125 102.778H421.72C421.734 102.671 421.741 102.563 421.741 102.455V102.132ZM419.115 99.4453C419.344 99.6877 419.512 99.9772 419.62 100.314C419.741 100.637 419.808 100.987 419.822 101.364H414.125C414.152 100.987 414.246 100.637 414.408 100.314C414.583 99.9772 414.799 99.6877 415.054 99.4453C415.324 99.2029 415.633 99.0143 415.984 98.8797C416.347 98.7315 416.731 98.6575 417.135 98.6575C417.579 98.6575 417.963 98.7315 418.286 98.8797C418.623 99.0143 418.899 99.2029 419.115 99.4453ZM383.987 102.495C384.499 102.455 384.991 102.435 385.462 102.435H385.926V102.94C385.926 103.748 385.684 104.421 385.199 104.96C384.728 105.485 384.048 105.748 383.159 105.748C382.917 105.748 382.681 105.727 382.452 105.687C382.223 105.633 382.014 105.546 381.826 105.424C381.637 105.303 381.482 105.148 381.361 104.96C381.254 104.771 381.2 104.536 381.2 104.253C381.2 103.849 381.334 103.526 381.604 103.283C381.873 103.041 382.21 102.859 382.614 102.738C383.031 102.617 383.489 102.536 383.987 102.495ZM385.28 99.2231C385.711 99.5597 385.926 100.085 385.926 100.799V101.061C385.118 101.061 384.317 101.095 383.523 101.162C382.728 101.23 382.014 101.378 381.381 101.607C380.749 101.822 380.237 102.145 379.846 102.576C379.456 102.994 379.26 103.566 379.26 104.293C379.26 104.845 379.368 105.31 379.584 105.687C379.813 106.064 380.095 106.367 380.432 106.596C380.769 106.825 381.139 106.987 381.543 107.081C381.961 107.189 382.358 107.242 382.735 107.242C383.462 107.242 384.088 107.101 384.613 106.818C385.152 106.535 385.597 106.138 385.947 105.626H386.007C386.007 106.084 386.061 106.542 386.169 107H387.886C387.832 106.771 387.792 106.482 387.765 106.131C387.751 105.768 387.744 105.424 387.744 105.101V100.92C387.744 100.395 387.664 99.9031 387.502 99.4453C387.34 98.9874 387.098 98.5901 386.775 98.2535C386.452 97.9168 386.034 97.6542 385.522 97.4657C385.024 97.2637 384.432 97.1627 383.745 97.1627C382.964 97.1627 382.23 97.2906 381.543 97.5465C380.87 97.8023 380.297 98.1525 379.826 98.5969L380.836 99.8089C381.159 99.4857 381.557 99.2231 382.028 99.0211C382.513 98.8056 383.024 98.6979 383.563 98.6979C384.277 98.6979 384.849 98.8729 385.28 99.2231ZM363.914 99.0009C364.157 98.4891 364.54 98.0582 365.066 97.7081C365.604 97.3445 366.237 97.1627 366.964 97.1627C367.611 97.1627 368.19 97.3108 368.702 97.6071C369.227 97.9033 369.637 98.3949 369.934 99.0817C370.257 98.4622 370.708 97.9909 371.287 97.6677C371.866 97.331 372.499 97.1627 373.186 97.1627C373.805 97.1627 374.337 97.2704 374.782 97.4859C375.226 97.6879 375.596 97.9639 375.893 98.3141C376.189 98.6642 376.404 99.0749 376.539 99.5463C376.687 100.018 376.761 100.523 376.761 101.061V107H374.863V101.687C374.863 101.297 374.829 100.927 374.762 100.576C374.694 100.226 374.58 99.9166 374.418 99.6473C374.257 99.3779 374.041 99.1625 373.772 99.0009C373.502 98.8393 373.159 98.7585 372.742 98.7585C372.311 98.7585 371.94 98.8527 371.631 99.0413C371.321 99.2163 371.065 99.452 370.863 99.7483C370.674 100.031 370.533 100.354 370.439 100.718C370.358 101.081 370.318 101.452 370.318 101.829V107H368.419V101.304C368.419 100.927 368.385 100.583 368.318 100.273C368.25 99.9637 368.136 99.7011 367.974 99.4857C367.813 99.2567 367.604 99.0817 367.348 98.9605C367.092 98.8258 366.776 98.7585 366.399 98.7585C365.698 98.7585 365.113 99.048 364.641 99.6271C364.184 100.193 363.955 100.954 363.955 101.91V107H362.056V99.4857C362.056 99.2298 362.049 98.8999 362.036 98.4959C362.022 98.0919 362.002 97.735 361.975 97.4253H363.773C363.8 97.6677 363.82 97.9437 363.833 98.2535C363.847 98.5497 363.854 98.7989 363.854 99.0009H363.914ZM350.828 103.384C350.693 102.98 350.626 102.556 350.626 102.112C350.626 101.654 350.693 101.223 350.828 100.819C350.976 100.401 351.185 100.045 351.454 99.7483C351.737 99.4385 352.074 99.1961 352.464 99.0211C352.855 98.8325 353.299 98.7383 353.797 98.7383C354.282 98.7383 354.72 98.8325 355.11 99.0211C355.514 99.1961 355.858 99.4385 356.14 99.7483C356.437 100.058 356.659 100.415 356.807 100.819C356.969 101.223 357.049 101.654 357.049 102.112C357.049 102.583 356.969 103.027 356.807 103.445C356.659 103.849 356.443 104.206 356.161 104.515C355.878 104.812 355.534 105.047 355.13 105.222C354.726 105.398 354.282 105.485 353.797 105.485C353.299 105.485 352.855 105.391 352.464 105.202C352.074 105.014 351.737 104.765 351.454 104.455C351.185 104.145 350.976 103.788 350.828 103.384ZM351.595 109.767C350.976 109.485 350.458 109.108 350.04 108.636L348.828 110.111C349.434 110.663 350.155 111.087 350.989 111.383C351.838 111.693 352.68 111.848 353.514 111.848C354.511 111.848 355.346 111.7 356.019 111.404C356.693 111.107 357.238 110.71 357.655 110.212C358.073 109.727 358.369 109.161 358.544 108.515C358.719 107.882 358.807 107.216 358.807 106.515V97.4253H356.969V98.9605H356.928C356.565 98.3545 356.066 97.9033 355.433 97.6071C354.814 97.3108 354.161 97.1627 353.474 97.1627C352.747 97.1627 352.087 97.2973 351.494 97.5667C350.902 97.8225 350.397 98.1794 349.979 98.6373C349.562 99.0817 349.239 99.6069 349.01 100.213C348.781 100.819 348.666 101.465 348.666 102.152C348.666 102.839 348.781 103.485 349.01 104.091C349.239 104.684 349.562 105.202 349.979 105.647C350.397 106.091 350.902 106.441 351.494 106.697C352.1 106.953 352.767 107.081 353.494 107.081C354.181 107.081 354.827 106.939 355.433 106.657C356.039 106.374 356.518 105.963 356.868 105.424H356.908V106.657C356.908 107.155 356.847 107.62 356.726 108.05C356.619 108.481 356.43 108.852 356.161 109.161C355.905 109.485 355.561 109.734 355.13 109.909C354.7 110.097 354.168 110.192 353.535 110.192C352.875 110.192 352.228 110.05 351.595 109.767ZM346.307 93.9711C346.307 94.3212 346.179 94.6107 345.924 94.8397C345.681 95.0686 345.385 95.1831 345.035 95.1831C344.685 95.1831 344.388 95.0686 344.146 94.8397C343.904 94.5973 343.782 94.3077 343.782 93.9711C343.782 93.6209 343.904 93.3314 344.146 93.1025C344.388 92.8601 344.685 92.7389 345.035 92.7389C345.385 92.7389 345.681 92.8601 345.924 93.1025C346.179 93.3314 346.307 93.6209 346.307 93.9711ZM345.984 107H344.085V97.4253H345.984V107ZM333.04 107H335.04V100.617H341.524V98.8999H335.04V94.4559H341.969V92.6985H333.04V107ZM320.571 99.4857C320.571 99.2298 320.564 98.8999 320.551 98.4959C320.537 98.0919 320.517 97.735 320.49 97.4253H322.288C322.315 97.6677 322.335 97.9505 322.348 98.2737C322.362 98.5834 322.369 98.8393 322.369 99.0413H322.429C322.699 98.4757 323.089 98.0245 323.601 97.6879C324.126 97.3377 324.712 97.1627 325.358 97.1627C325.654 97.1627 325.904 97.1896 326.106 97.2435L326.025 99.0009C325.755 98.9335 325.466 98.8999 325.156 98.8999C324.698 98.8999 324.301 98.9874 323.964 99.1625C323.628 99.3241 323.345 99.5463 323.116 99.8291C322.901 100.112 322.739 100.442 322.631 100.819C322.523 101.182 322.47 101.566 322.47 101.97V107H320.571V99.4857ZM315.5 106.192C315.513 106.488 315.534 106.758 315.561 107H317.358C317.331 106.69 317.311 106.333 317.298 105.929C317.284 105.525 317.278 105.196 317.278 104.94V97.4253H315.379V102.516C315.379 103.472 315.143 104.239 314.672 104.818C314.2 105.384 313.581 105.667 312.813 105.667C312.369 105.667 312.005 105.586 311.723 105.424C311.44 105.263 311.218 105.047 311.056 104.778C310.894 104.509 310.78 104.199 310.713 103.849C310.659 103.485 310.632 103.108 310.632 102.718V97.4253H308.733V103.364C308.733 103.903 308.8 104.408 308.935 104.879C309.083 105.35 309.299 105.768 309.581 106.131C309.878 106.482 310.248 106.758 310.692 106.96C311.15 107.162 311.689 107.263 312.308 107.263C313.009 107.263 313.642 107.088 314.207 106.737C314.786 106.374 315.197 105.936 315.439 105.424H315.48C315.48 105.626 315.486 105.882 315.5 106.192ZM304.201 102.192C304.201 101.735 304.127 101.297 303.979 100.879C303.844 100.462 303.642 100.098 303.373 99.7887C303.104 99.4655 302.767 99.2096 302.363 99.0211C301.972 98.8325 301.521 98.7383 301.009 98.7383C300.498 98.7383 300.04 98.8325 299.636 99.0211C299.245 99.2096 298.915 99.4655 298.646 99.7887C298.377 100.098 298.168 100.462 298.02 100.879C297.885 101.297 297.818 101.735 297.818 102.192C297.818 102.65 297.885 103.088 298.02 103.505C298.168 103.923 298.377 104.293 298.646 104.616C298.915 104.94 299.245 105.196 299.636 105.384C300.04 105.573 300.498 105.667 301.009 105.667C301.521 105.667 301.972 105.573 302.363 105.384C302.767 105.196 303.104 104.94 303.373 104.616C303.642 104.293 303.844 103.923 303.979 103.505C304.127 103.088 304.201 102.65 304.201 102.192ZM306.181 102.192C306.181 102.933 306.046 103.613 305.777 104.233C305.521 104.852 305.157 105.391 304.686 105.849C304.228 106.293 303.683 106.643 303.05 106.899C302.417 107.141 301.737 107.263 301.009 107.263C300.282 107.263 299.602 107.141 298.969 106.899C298.336 106.643 297.791 106.293 297.333 105.849C296.875 105.391 296.512 104.852 296.242 104.233C295.986 103.613 295.858 102.933 295.858 102.192C295.858 101.452 295.986 100.778 296.242 100.172C296.512 99.553 296.875 99.0211 297.333 98.5767C297.791 98.1323 298.336 97.7889 298.969 97.5465C299.602 97.2906 300.282 97.1627 301.009 97.1627C301.737 97.1627 302.417 97.2906 303.05 97.5465C303.683 97.7889 304.228 98.1323 304.686 98.5767C305.157 99.0211 305.521 99.553 305.777 100.172C306.046 100.778 306.181 101.452 306.181 102.192ZM289.982 104.94H289.942L286.972 97.4253H284.851L288.952 107L288.346 108.596C288.144 109.108 287.922 109.498 287.679 109.767C287.437 110.05 287.067 110.192 286.568 110.192C286.259 110.192 285.942 110.138 285.619 110.03L285.437 111.707C285.653 111.761 285.861 111.794 286.063 111.808C286.279 111.835 286.488 111.848 286.69 111.848C287.161 111.848 287.565 111.787 287.902 111.666C288.252 111.545 288.555 111.37 288.811 111.141C289.066 110.926 289.289 110.656 289.477 110.333C289.666 110.023 289.841 109.666 290.002 109.262L294.648 97.4253H292.628L289.982 104.94ZM269.674 100.879C269.822 101.297 269.897 101.735 269.897 102.192C269.897 102.65 269.822 103.088 269.674 103.505C269.54 103.923 269.338 104.293 269.068 104.616C268.799 104.94 268.462 105.196 268.058 105.384C267.668 105.573 267.217 105.667 266.705 105.667C266.193 105.667 265.735 105.573 265.331 105.384C264.941 105.196 264.611 104.94 264.342 104.616C264.072 104.293 263.863 103.923 263.715 103.505C263.581 103.088 263.513 102.65 263.513 102.192C263.513 101.735 263.581 101.297 263.715 100.879C263.863 100.462 264.072 100.098 264.342 99.7887C264.611 99.4655 264.941 99.2096 265.331 99.0211C265.735 98.8325 266.193 98.7383 266.705 98.7383C267.217 98.7383 267.668 98.8325 268.058 99.0211C268.462 99.2096 268.799 99.4655 269.068 99.7887C269.338 100.098 269.54 100.462 269.674 100.879ZM271.472 104.233C271.741 103.613 271.876 102.933 271.876 102.192C271.876 101.452 271.741 100.778 271.472 100.172C271.216 99.553 270.853 99.0211 270.381 98.5767C269.923 98.1323 269.378 97.7889 268.745 97.5465C268.112 97.2906 267.432 97.1627 266.705 97.1627C265.978 97.1627 265.298 97.2906 264.665 97.5465C264.032 97.7889 263.486 98.1323 263.029 98.5767C262.571 99.0211 262.207 99.553 261.938 100.172C261.682 100.778 261.554 101.452 261.554 102.192C261.554 102.933 261.682 103.613 261.938 104.233C262.207 104.852 262.571 105.391 263.029 105.849C263.486 106.293 264.032 106.643 264.665 106.899C265.298 107.141 265.978 107.263 266.705 107.263C267.432 107.263 268.112 107.141 268.745 106.899C269.378 106.643 269.923 106.293 270.381 105.849C270.853 105.391 271.216 104.852 271.472 104.233ZM253.326 99.8493C253.11 99.4991 252.807 99.2163 252.417 99.0009C252.026 98.7719 251.589 98.6575 251.104 98.6575C250.888 98.6575 250.673 98.6844 250.457 98.7383C250.242 98.7787 250.047 98.8527 249.872 98.9605C249.71 99.0547 249.575 99.1827 249.468 99.3443C249.373 99.4924 249.326 99.6809 249.326 99.9099C249.326 100.314 249.508 100.617 249.872 100.819C250.235 101.007 250.781 101.182 251.508 101.344C251.966 101.452 252.39 101.58 252.78 101.728C253.171 101.876 253.508 102.065 253.79 102.293C254.087 102.509 254.316 102.772 254.477 103.081C254.639 103.391 254.72 103.755 254.72 104.172C254.72 104.738 254.612 105.216 254.396 105.606C254.181 105.997 253.891 106.32 253.528 106.576C253.178 106.818 252.774 106.993 252.316 107.101C251.858 107.209 251.387 107.263 250.902 107.263C250.175 107.263 249.461 107.121 248.761 106.838C248.074 106.556 247.501 106.125 247.044 105.546L248.397 104.394C248.653 104.771 249.003 105.088 249.447 105.344C249.905 105.6 250.404 105.727 250.942 105.727C251.185 105.727 251.414 105.707 251.629 105.667C251.858 105.613 252.06 105.532 252.235 105.424C252.424 105.317 252.572 105.175 252.679 105C252.787 104.825 252.841 104.603 252.841 104.334C252.841 103.889 252.626 103.559 252.195 103.344C251.777 103.128 251.158 102.926 250.336 102.738C250.013 102.657 249.683 102.563 249.346 102.455C249.023 102.334 248.727 102.172 248.458 101.97C248.188 101.768 247.966 101.519 247.791 101.223C247.629 100.913 247.549 100.536 247.549 100.092C247.549 99.5799 247.65 99.1423 247.852 98.7787C248.067 98.4016 248.343 98.0986 248.68 97.8697C249.016 97.6273 249.4 97.4522 249.831 97.3445C250.262 97.2233 250.707 97.1627 251.164 97.1627C251.851 97.1627 252.511 97.2973 253.144 97.5667C253.79 97.836 254.289 98.2265 254.639 98.7383L253.326 99.8493ZM238.175 98.2535C238.162 97.9437 238.141 97.6677 238.115 97.4253H236.317C236.344 97.735 236.364 98.0919 236.377 98.4959C236.391 98.8999 236.398 99.2298 236.398 99.4857V107H238.296V101.91C238.296 100.954 238.532 100.193 239.003 99.6271C239.488 99.048 240.108 98.7585 240.862 98.7585C241.306 98.7585 241.67 98.8393 241.953 99.0009C242.235 99.1625 242.458 99.3779 242.619 99.6473C242.781 99.9166 242.888 100.226 242.942 100.576C243.01 100.927 243.043 101.297 243.043 101.687V107H244.942V101.061C244.942 100.523 244.868 100.018 244.72 99.5463C244.585 99.0749 244.37 98.6642 244.074 98.3141C243.777 97.9639 243.407 97.6879 242.963 97.4859C242.518 97.2704 241.986 97.1627 241.367 97.1627C241.017 97.1627 240.68 97.2098 240.357 97.3041C240.034 97.3983 239.737 97.533 239.468 97.7081C239.199 97.8697 238.956 98.0649 238.741 98.2939C238.539 98.5093 238.377 98.745 238.256 99.0009H238.195C238.195 98.7989 238.189 98.5497 238.175 98.2535ZM231.785 102.192C231.785 101.735 231.711 101.297 231.563 100.879C231.428 100.462 231.226 100.098 230.957 99.7887C230.687 99.4655 230.351 99.2096 229.947 99.0211C229.556 98.8325 229.105 98.7383 228.593 98.7383C228.082 98.7383 227.624 98.8325 227.22 99.0211C226.829 99.2096 226.499 99.4655 226.23 99.7887C225.961 100.098 225.752 100.462 225.604 100.879C225.469 101.297 225.402 101.735 225.402 102.192C225.402 102.65 225.469 103.088 225.604 103.505C225.752 103.923 225.961 104.293 226.23 104.616C226.499 104.94 226.829 105.196 227.22 105.384C227.624 105.573 228.082 105.667 228.593 105.667C229.105 105.667 229.556 105.573 229.947 105.384C230.351 105.196 230.687 104.94 230.957 104.616C231.226 104.293 231.428 103.923 231.563 103.505C231.711 103.088 231.785 102.65 231.785 102.192ZM233.764 102.192C233.764 102.933 233.63 103.613 233.36 104.233C233.105 104.852 232.741 105.391 232.27 105.849C231.812 106.293 231.266 106.643 230.633 106.899C230.001 107.141 229.32 107.263 228.593 107.263C227.866 107.263 227.186 107.141 226.553 106.899C225.92 106.643 225.375 106.293 224.917 105.849C224.459 105.391 224.095 104.852 223.826 104.233C223.57 103.613 223.442 102.933 223.442 102.192C223.442 101.452 223.57 100.778 223.826 100.172C224.095 99.553 224.459 99.0211 224.917 98.5767C225.375 98.1323 225.92 97.7889 226.553 97.5465C227.186 97.2906 227.866 97.1627 228.593 97.1627C229.32 97.1627 230.001 97.2906 230.633 97.5465C231.266 97.7889 231.812 98.1323 232.27 98.5767C232.741 99.0211 233.105 99.553 233.36 100.172C233.63 100.778 233.764 101.452 233.764 102.192ZM220.699 94.8397C220.955 94.6107 221.083 94.3212 221.083 93.9711C221.083 93.6209 220.955 93.3314 220.699 93.1025C220.457 92.8601 220.161 92.7389 219.811 92.7389C219.46 92.7389 219.164 92.8601 218.922 93.1025C218.679 93.3314 218.558 93.6209 218.558 93.9711C218.558 94.3077 218.679 94.5973 218.922 94.8397C219.164 95.0686 219.46 95.1831 219.811 95.1831C220.161 95.1831 220.457 95.0686 220.699 94.8397ZM218.861 107H220.76V97.4253H218.861V107ZM215.037 99.8493C214.821 99.4991 214.518 99.2163 214.128 99.0009C213.737 98.7719 213.299 98.6575 212.815 98.6575C212.599 98.6575 212.384 98.6844 212.168 98.7383C211.953 98.7787 211.757 98.8527 211.582 98.9605C211.421 99.0547 211.286 99.1827 211.178 99.3443C211.084 99.4924 211.037 99.6809 211.037 99.9099C211.037 100.314 211.219 100.617 211.582 100.819C211.946 101.007 212.491 101.182 213.219 101.344C213.676 101.452 214.101 101.58 214.491 101.728C214.882 101.876 215.218 102.065 215.501 102.293C215.797 102.509 216.026 102.772 216.188 103.081C216.35 103.391 216.43 103.755 216.43 104.172C216.43 104.738 216.323 105.216 216.107 105.606C215.892 105.997 215.602 106.32 215.239 106.576C214.888 106.818 214.484 106.993 214.027 107.101C213.569 107.209 213.097 107.263 212.613 107.263C211.885 107.263 211.172 107.121 210.471 106.838C209.785 106.556 209.212 106.125 208.754 105.546L210.108 104.394C210.364 104.771 210.714 105.088 211.158 105.344C211.616 105.6 212.114 105.727 212.653 105.727C212.895 105.727 213.124 105.707 213.34 105.667C213.569 105.613 213.771 105.532 213.946 105.424C214.134 105.317 214.282 105.175 214.39 105C214.498 104.825 214.552 104.603 214.552 104.334C214.552 103.889 214.336 103.559 213.905 103.344C213.488 103.128 212.868 102.926 212.047 102.738C211.724 102.657 211.394 102.563 211.057 102.455C210.734 102.334 210.438 102.172 210.168 101.97C209.899 101.768 209.677 101.519 209.502 101.223C209.34 100.913 209.259 100.536 209.259 100.092C209.259 99.5799 209.36 99.1423 209.562 98.7787C209.778 98.4016 210.054 98.0986 210.391 97.8697C210.727 97.6273 211.111 97.4522 211.542 97.3445C211.973 97.2233 212.417 97.1627 212.875 97.1627C213.562 97.1627 214.222 97.2973 214.855 97.5667C215.501 97.836 215.999 98.2265 216.35 98.7383L215.037 99.8493ZM202.527 98.4959C202.54 98.8999 202.547 99.2298 202.547 99.4857V107H204.446V101.97C204.446 101.566 204.499 101.182 204.607 100.819C204.715 100.442 204.876 100.112 205.092 99.8291C205.321 99.5463 205.604 99.3241 205.94 99.1625C206.277 98.9874 206.674 98.8999 207.132 98.8999C207.442 98.8999 207.731 98.9335 208.001 99.0009L208.082 97.2435C207.88 97.1896 207.63 97.1627 207.334 97.1627C206.688 97.1627 206.102 97.3377 205.577 97.6879C205.065 98.0245 204.674 98.4757 204.405 99.0413H204.345C204.345 98.8393 204.338 98.5834 204.324 98.2737C204.311 97.9505 204.291 97.6677 204.264 97.4253H202.466C202.493 97.735 202.513 98.0919 202.527 98.4959ZM199.896 102.132V102.455C199.896 102.563 199.889 102.671 199.875 102.778H192.28C192.294 103.182 192.381 103.566 192.543 103.93C192.718 104.28 192.947 104.59 193.23 104.859C193.512 105.115 193.836 105.317 194.199 105.465C194.576 105.613 194.974 105.687 195.391 105.687C196.037 105.687 196.596 105.546 197.068 105.263C197.539 104.98 197.909 104.637 198.179 104.233L199.512 105.303C199 105.977 198.394 106.475 197.694 106.798C197.007 107.108 196.239 107.263 195.391 107.263C194.664 107.263 193.991 107.141 193.371 106.899C192.752 106.657 192.22 106.32 191.775 105.889C191.331 105.445 190.981 104.913 190.725 104.293C190.469 103.674 190.341 102.987 190.341 102.233C190.341 101.492 190.462 100.812 190.705 100.193C190.961 99.5597 191.311 99.0211 191.755 98.5767C192.199 98.1323 192.725 97.7889 193.331 97.5465C193.937 97.2906 194.59 97.1627 195.29 97.1627C195.99 97.1627 196.623 97.2771 197.189 97.5061C197.768 97.735 198.253 98.0649 198.643 98.4959C199.047 98.9268 199.357 99.452 199.572 100.071C199.788 100.677 199.896 101.364 199.896 102.132ZM197.977 101.364C197.963 100.987 197.896 100.637 197.775 100.314C197.667 99.9772 197.499 99.6877 197.27 99.4453C197.054 99.2029 196.778 99.0143 196.441 98.8797C196.118 98.7315 195.734 98.6575 195.29 98.6575C194.886 98.6575 194.502 98.7315 194.139 98.8797C193.789 99.0143 193.479 99.2029 193.209 99.4453C192.954 99.6877 192.738 99.9772 192.563 100.314C192.401 100.637 192.307 100.987 192.28 101.364H197.977ZM183.233 107H185.293L189.131 97.4253H187.111L184.283 104.96H184.243L181.435 97.4253H179.334L183.233 107ZM173.777 98.9807H171.232V103.97C171.232 104.549 171.339 104.967 171.555 105.222C171.77 105.465 172.114 105.586 172.585 105.586C172.76 105.586 172.949 105.566 173.151 105.525C173.353 105.485 173.535 105.424 173.696 105.344L173.757 106.899C173.528 106.98 173.272 107.04 172.989 107.081C172.72 107.135 172.437 107.162 172.141 107.162C171.238 107.162 170.545 106.913 170.06 106.414C169.589 105.916 169.353 105.169 169.353 104.172V98.9807H167.515V97.4253H169.353V94.6781H171.232V97.4253H173.777V98.9807ZM159.308 98.2535C159.295 97.9437 159.275 97.6677 159.248 97.4253H157.45C157.477 97.735 157.497 98.0919 157.511 98.4959C157.524 98.8999 157.531 99.2298 157.531 99.4857V107H159.43V101.91C159.43 100.954 159.665 100.193 160.137 99.6271C160.621 99.048 161.241 98.7585 161.995 98.7585C162.439 98.7585 162.803 98.8393 163.086 99.0009C163.369 99.1625 163.591 99.3779 163.752 99.6473C163.914 99.9166 164.022 100.226 164.076 100.576C164.143 100.927 164.177 101.297 164.177 101.687V107H166.075V101.061C166.075 100.523 166.001 100.018 165.853 99.5463C165.718 99.0749 165.503 98.6642 165.207 98.3141C164.91 97.9639 164.54 97.6879 164.096 97.4859C163.651 97.2704 163.119 97.1627 162.5 97.1627C162.15 97.1627 161.813 97.2098 161.49 97.3041C161.167 97.3983 160.87 97.533 160.601 97.7081C160.332 97.8697 160.089 98.0649 159.874 98.2939C159.672 98.5093 159.51 98.745 159.389 99.0009H159.329C159.329 98.7989 159.322 98.5497 159.308 98.2535ZM154.88 102.132V102.455C154.88 102.563 154.873 102.671 154.859 102.778H147.264C147.278 103.182 147.365 103.566 147.527 103.93C147.702 104.28 147.931 104.59 148.214 104.859C148.496 105.115 148.82 105.317 149.183 105.465C149.56 105.613 149.958 105.687 150.375 105.687C151.021 105.687 151.58 105.546 152.052 105.263C152.523 104.98 152.893 104.637 153.163 104.233L154.496 105.303C153.984 105.977 153.378 106.475 152.678 106.798C151.991 107.108 151.223 107.263 150.375 107.263C149.648 107.263 148.975 107.141 148.355 106.899C147.736 106.657 147.204 106.32 146.759 105.889C146.315 105.445 145.965 104.913 145.709 104.293C145.453 103.674 145.325 102.987 145.325 102.233C145.325 101.492 145.446 100.812 145.689 100.193C145.945 99.5597 146.295 99.0211 146.739 98.5767C147.183 98.1323 147.709 97.7889 148.315 97.5465C148.921 97.2906 149.574 97.1627 150.274 97.1627C150.974 97.1627 151.607 97.2771 152.173 97.5061C152.752 97.735 153.237 98.0649 153.627 98.4959C154.031 98.9268 154.341 99.452 154.556 100.071C154.772 100.677 154.88 101.364 154.88 102.132ZM152.961 101.364C152.947 100.987 152.88 100.637 152.759 100.314C152.651 99.9772 152.483 99.6877 152.254 99.4453C152.038 99.2029 151.762 99.0143 151.425 98.8797C151.102 98.7315 150.718 98.6575 150.274 98.6575C149.87 98.6575 149.486 98.7315 149.123 98.8797C148.773 99.0143 148.463 99.2029 148.193 99.4453C147.938 99.6877 147.722 99.9772 147.547 100.314C147.385 100.637 147.291 100.987 147.264 101.364H152.961ZM138.968 98.4959C138.981 98.8999 138.988 99.2298 138.988 99.4857V107H140.887V101.97C140.887 101.566 140.94 101.182 141.048 100.819C141.156 100.442 141.318 100.112 141.533 99.8291C141.762 99.5463 142.045 99.3241 142.381 99.1625C142.718 98.9874 143.115 98.8999 143.573 98.8999C143.883 98.8999 144.172 98.9335 144.442 99.0009L144.523 97.2435C144.321 97.1896 144.071 97.1627 143.775 97.1627C143.129 97.1627 142.543 97.3377 142.018 97.6879C141.506 98.0245 141.116 98.4757 140.846 99.0413H140.786C140.786 98.8393 140.779 98.5834 140.765 98.2737C140.752 97.9505 140.732 97.6677 140.705 97.4253H138.907C138.934 97.735 138.954 98.0919 138.968 98.4959ZM136.337 102.132V102.455C136.337 102.563 136.33 102.671 136.316 102.778H128.721C128.735 103.182 128.822 103.566 128.984 103.93C129.159 104.28 129.388 104.59 129.671 104.859C129.953 105.115 130.277 105.317 130.64 105.465C131.017 105.613 131.415 105.687 131.832 105.687C132.478 105.687 133.037 105.546 133.509 105.263C133.98 104.98 134.35 104.637 134.62 104.233L135.953 105.303C135.441 105.977 134.835 106.475 134.135 106.798C133.448 107.108 132.68 107.263 131.832 107.263C131.105 107.263 130.432 107.141 129.812 106.899C129.193 106.657 128.661 106.32 128.216 105.889C127.772 105.445 127.422 104.913 127.166 104.293C126.91 103.674 126.782 102.987 126.782 102.233C126.782 101.492 126.903 100.812 127.146 100.193C127.402 99.5597 127.752 99.0211 128.196 98.5767C128.64 98.1323 129.166 97.7889 129.772 97.5465C130.378 97.2906 131.031 97.1627 131.731 97.1627C132.431 97.1627 133.064 97.2771 133.63 97.5061C134.209 97.735 134.694 98.0649 135.084 98.4959C135.488 98.9268 135.798 99.452 136.013 100.071C136.229 100.677 136.337 101.364 136.337 102.132ZM134.418 101.364C134.404 100.987 134.337 100.637 134.216 100.314C134.108 99.9772 133.94 99.6877 133.711 99.4453C133.495 99.2029 133.219 99.0143 132.882 98.8797C132.559 98.7315 132.175 98.6575 131.731 98.6575C131.327 98.6575 130.943 98.7315 130.58 98.8797C130.23 99.0143 129.92 99.2029 129.65 99.4453C129.395 99.6877 129.179 99.9772 129.004 100.314C128.842 100.637 128.748 100.987 128.721 101.364H134.418ZM111.966 94.8397C112.222 94.6107 112.35 94.3212 112.35 93.9711C112.35 93.6209 112.222 93.3314 111.966 93.1025C111.724 92.8601 111.428 92.7389 111.078 92.7389C110.728 92.7389 110.431 92.8601 110.189 93.1025C109.946 93.3314 109.825 93.6209 109.825 93.9711C109.825 94.3077 109.946 94.5973 110.189 94.8397C110.431 95.0686 110.728 95.1831 111.078 95.1831C111.428 95.1831 111.724 95.0686 111.966 94.8397ZM110.128 107H112.027V97.4253H110.128V107ZM98.619 102.192C98.619 102.637 98.6864 103.068 98.821 103.485C98.9557 103.903 99.1577 104.273 99.427 104.596C99.6964 104.919 100.026 105.182 100.417 105.384C100.807 105.573 101.265 105.667 101.79 105.667C102.275 105.667 102.713 105.573 103.103 105.384C103.507 105.196 103.851 104.946 104.134 104.637C104.416 104.313 104.632 103.943 104.78 103.526C104.942 103.108 105.022 102.671 105.022 102.213C105.022 101.755 104.942 101.317 104.78 100.9C104.632 100.482 104.416 100.112 104.134 99.7887C103.851 99.4655 103.507 99.2096 103.103 99.0211C102.713 98.8325 102.275 98.7383 101.79 98.7383C101.265 98.7383 100.807 98.8325 100.417 99.0211C100.026 99.2096 99.6964 99.4655 99.427 99.7887C99.1577 100.112 98.9557 100.482 98.821 100.9C98.6864 101.317 98.619 101.748 98.619 102.192ZM104.921 105.485C104.558 106.064 104.06 106.509 103.427 106.818C102.807 107.115 102.154 107.263 101.467 107.263C100.727 107.263 100.06 107.135 99.4674 106.879C98.8749 106.61 98.3699 106.246 97.9524 105.788C97.535 105.33 97.2118 104.792 96.9828 104.172C96.7539 103.553 96.6394 102.893 96.6394 102.192C96.6394 101.492 96.7539 100.839 96.9828 100.233C97.2118 99.6136 97.535 99.0749 97.9524 98.6171C98.3834 98.1592 98.8951 97.8023 99.4876 97.5465C100.08 97.2906 100.733 97.1627 101.447 97.1627C102.228 97.1627 102.908 97.331 103.487 97.6677C104.066 97.9909 104.524 98.3881 104.861 98.8595H104.901V91.7289H106.8V107H104.962V105.485H104.921ZM89.5847 102.455V102.132C89.5847 101.364 89.477 100.677 89.2615 100.071C89.0461 99.452 88.7363 98.9268 88.3323 98.4959C87.9418 98.0649 87.457 97.735 86.8779 97.5061C86.3123 97.2771 85.6794 97.1627 84.9791 97.1627C84.2789 97.1627 83.6257 97.2906 83.0197 97.5465C82.4137 97.7889 81.8885 98.1323 81.4441 98.5767C80.9997 99.0211 80.6496 99.5597 80.3937 100.193C80.1513 100.812 80.0301 101.492 80.0301 102.233C80.0301 102.987 80.1581 103.674 80.4139 104.293C80.6698 104.913 81.0199 105.445 81.4643 105.889C81.9087 106.32 82.4407 106.657 83.0601 106.899C83.6796 107.141 84.3529 107.263 85.0801 107.263C85.9285 107.263 86.6961 107.108 87.3829 106.798C88.0832 106.475 88.6892 105.977 89.2009 105.303L87.8677 104.233C87.5984 104.637 87.2281 104.98 86.7567 105.263C86.2854 105.546 85.7265 105.687 85.0801 105.687C84.6627 105.687 84.2654 105.613 83.8883 105.465C83.5247 105.317 83.2015 105.115 82.9187 104.859C82.6359 104.59 82.407 104.28 82.2319 103.93C82.0703 103.566 81.9828 103.182 81.9693 102.778H89.5645C89.578 102.671 89.5847 102.563 89.5847 102.455ZM87.4637 100.314C87.5849 100.637 87.6523 100.987 87.6657 101.364H81.9693C81.9963 100.987 82.0905 100.637 82.2521 100.314C82.4272 99.9772 82.6427 99.6877 82.8985 99.4453C83.1679 99.2029 83.4776 99.0143 83.8277 98.8797C84.1913 98.7315 84.5751 98.6575 84.9791 98.6575C85.4235 98.6575 85.8073 98.7315 86.1305 98.8797C86.4672 99.0143 86.7433 99.2029 86.9587 99.4453C87.1877 99.6877 87.356 99.9772 87.4637 100.314ZM73.6928 99.4857C73.6928 99.2298 73.6861 98.8999 73.6726 98.4959C73.6592 98.0919 73.639 97.735 73.612 97.4253H75.4099C75.4368 97.6677 75.457 97.9505 75.4705 98.2737C75.4839 98.5834 75.4906 98.8393 75.4906 99.0413H75.5512C75.8206 98.4757 76.2111 98.0245 76.7228 97.6879C77.248 97.3377 77.8338 97.1627 78.4802 97.1627C78.7765 97.1627 79.0256 97.1896 79.2276 97.2435L79.1469 99.0009C78.8775 98.9335 78.588 98.8999 78.2783 98.8999C77.8204 98.8999 77.4231 98.9874 77.0864 99.1625C76.7498 99.3241 76.467 99.5463 76.2381 99.8291C76.0226 100.112 75.861 100.442 75.7533 100.819C75.6455 101.182 75.5917 101.566 75.5917 101.97V107H73.6928V99.4857ZM66.7644 102.495C67.2761 102.455 67.7677 102.435 68.239 102.435H68.7036V102.94C68.7036 103.748 68.4612 104.421 67.9764 104.96C67.5051 105.485 66.825 105.748 65.9362 105.748C65.6938 105.748 65.4581 105.727 65.2292 105.687C65.0003 105.633 64.7915 105.546 64.603 105.424C64.4145 105.303 64.2596 105.148 64.1384 104.96C64.0307 104.771 63.9768 104.536 63.9768 104.253C63.9768 103.849 64.1115 103.526 64.3808 103.283C64.6501 103.041 64.9868 102.859 65.3908 102.738C65.8083 102.617 66.2661 102.536 66.7644 102.495ZM68.0572 99.2231C68.4882 99.5597 68.7036 100.085 68.7036 100.799V101.061C67.8956 101.061 67.0943 101.095 66.2998 101.162C65.5053 101.23 64.7915 101.378 64.1586 101.607C63.5257 101.822 63.0139 102.145 62.6234 102.576C62.2329 102.994 62.0376 103.566 62.0376 104.293C62.0376 104.845 62.1453 105.31 62.3608 105.687C62.5897 106.064 62.8725 106.367 63.2092 106.596C63.5459 106.825 63.9162 106.987 64.3202 107.081C64.7377 107.189 65.1349 107.242 65.512 107.242C66.2392 107.242 66.8654 107.101 67.3906 106.818C67.9293 106.535 68.3737 106.138 68.7238 105.626H68.7844C68.7844 106.084 68.8383 106.542 68.946 107H70.663C70.6091 106.771 70.5687 106.482 70.5418 106.131C70.5283 105.768 70.5216 105.424 70.5216 105.101V100.92C70.5216 100.395 70.4408 99.9031 70.2792 99.4453C70.1176 98.9874 69.8752 98.5901 69.552 98.2535C69.2288 97.9168 68.8114 97.6542 68.2996 97.4657C67.8013 97.2637 67.2088 97.1627 66.522 97.1627C65.7409 97.1627 65.007 97.2906 64.3202 97.5465C63.6469 97.8023 63.0745 98.1525 62.6032 98.5969L63.6132 99.8089C63.9364 99.4857 64.3337 99.2231 64.805 99.0211C65.2898 98.8056 65.8015 98.6979 66.3402 98.6979C67.0539 98.6979 67.6263 98.8729 68.0572 99.2231ZM58.1433 102.192C58.1433 101.748 58.0759 101.317 57.9413 100.9C57.8066 100.482 57.6046 100.112 57.3353 99.7887C57.0659 99.4655 56.7293 99.2096 56.3253 99.0211C55.9347 98.8325 55.4769 98.7383 54.9517 98.7383C54.4669 98.7383 54.0225 98.8325 53.6185 99.0211C53.2279 99.2096 52.8913 99.4655 52.6085 99.7887C52.3257 100.112 52.1035 100.482 51.9419 100.9C51.7937 101.317 51.7197 101.755 51.7197 102.213C51.7197 102.671 51.7937 103.108 51.9419 103.526C52.1035 103.943 52.3257 104.313 52.6085 104.637C52.8913 104.946 53.2279 105.196 53.6185 105.384C54.0225 105.573 54.4669 105.667 54.9517 105.667C55.4769 105.667 55.9347 105.573 56.3253 105.384C56.7293 105.182 57.0659 104.919 57.3353 104.596C57.6046 104.273 57.8066 103.903 57.9413 103.485C58.0759 103.068 58.1433 102.637 58.1433 102.192ZM51.8409 111.848H49.9421V97.4253H51.8005V98.9201H51.8611C52.1708 98.4083 52.6219 97.9909 53.2145 97.6677C53.8205 97.331 54.5207 97.1627 55.3153 97.1627C56.029 97.1627 56.6754 97.2906 57.2545 97.5465C57.847 97.8023 58.352 98.1592 58.7695 98.6171C59.2004 99.0749 59.5303 99.6136 59.7593 100.233C59.9882 100.839 60.1027 101.492 60.1027 102.192C60.1027 102.893 59.9882 103.553 59.7593 104.172C59.5303 104.792 59.2071 105.33 58.7897 105.788C58.3722 106.246 57.8672 106.61 57.2747 106.879C56.6821 107.135 56.0155 107.263 55.2749 107.263C54.5881 107.263 53.9417 107.115 53.3357 106.818C52.7297 106.522 52.2516 106.105 51.9015 105.566H51.8409V111.848ZM35.0402 97.7081C34.515 98.0582 34.1312 98.4891 33.8888 99.0009H33.8282C33.8282 98.7989 33.8214 98.5497 33.808 98.2535C33.7945 97.9437 33.7743 97.6677 33.7474 97.4253H31.9496C31.9765 97.735 31.9967 98.0919 32.0102 98.4959C32.0236 98.8999 32.0304 99.2298 32.0304 99.4857V107H33.9292V101.91C33.9292 100.954 34.1581 100.193 34.616 99.6271C35.0873 99.048 35.6731 98.7585 36.3734 98.7585C36.7504 98.7585 37.0669 98.8258 37.3228 98.9605C37.5786 99.0817 37.7874 99.2567 37.949 99.4857C38.1106 99.7011 38.225 99.9637 38.2924 100.273C38.3597 100.583 38.3934 100.927 38.3934 101.304V107H40.2922V101.829C40.2922 101.452 40.3326 101.081 40.4134 100.718C40.5076 100.354 40.649 100.031 40.8376 99.7483C41.0396 99.452 41.2954 99.2163 41.6052 99.0413C41.9149 98.8527 42.2852 98.7585 42.7162 98.7585C43.1336 98.7585 43.477 98.8393 43.7464 99.0009C44.0157 99.1625 44.2312 99.3779 44.3928 99.6473C44.5544 99.9166 44.6688 100.226 44.7362 100.576C44.8035 100.927 44.8372 101.297 44.8372 101.687V107H46.736V101.061C46.736 100.523 46.6619 100.018 46.5138 99.5463C46.3791 99.0749 46.1636 98.6642 45.8674 98.3141C45.5711 97.9639 45.2008 97.6879 44.7564 97.4859C44.312 97.2704 43.78 97.1627 43.1606 97.1627C42.4738 97.1627 41.8408 97.331 41.2617 97.6677C40.6827 97.9909 40.2316 98.4622 39.9084 99.0817C39.6121 98.3949 39.2014 97.9033 38.6762 97.6071C38.1644 97.3108 37.5854 97.1627 36.939 97.1627C36.2118 97.1627 35.5788 97.3445 35.0402 97.7081ZM27.4176 102.192C27.4176 101.735 27.3436 101.297 27.1954 100.879C27.0608 100.462 26.8588 100.098 26.5895 99.7887C26.3201 99.4655 25.9834 99.2096 25.5794 99.0211C25.1889 98.8325 24.7378 98.7383 24.226 98.7383C23.7143 98.7383 23.2564 98.8325 22.8524 99.0211C22.4619 99.2096 22.132 99.4655 21.8626 99.7887C21.5933 100.098 21.3846 100.462 21.2365 100.879C21.1018 101.297 21.0344 101.735 21.0344 102.192C21.0344 102.65 21.1018 103.088 21.2365 103.505C21.3846 103.923 21.5933 104.293 21.8626 104.616C22.132 104.94 22.4619 105.196 22.8524 105.384C23.2564 105.573 23.7143 105.667 24.226 105.667C24.7378 105.667 25.1889 105.573 25.5794 105.384C25.9834 105.196 26.3201 104.94 26.5895 104.616C26.8588 104.293 27.0608 103.923 27.1954 103.505C27.3436 103.088 27.4176 102.65 27.4176 102.192ZM29.3973 102.192C29.3973 102.933 29.2626 103.613 28.9932 104.233C28.7374 104.852 28.3738 105.391 27.9025 105.849C27.4446 106.293 26.8992 106.643 26.2663 106.899C25.6333 107.141 24.9532 107.263 24.226 107.263C23.4988 107.263 22.8188 107.141 22.1858 106.899C21.5529 106.643 21.0075 106.293 20.5496 105.849C20.0918 105.391 19.7282 104.852 19.4588 104.233C19.203 103.613 19.075 102.933 19.075 102.192C19.075 101.452 19.203 100.778 19.4588 100.172C19.7282 99.553 20.0918 99.0211 20.5496 98.5767C21.0075 98.1323 21.5529 97.7889 22.1858 97.5465C22.8188 97.2906 23.4988 97.1627 24.226 97.1627C24.9532 97.1627 25.6333 97.2906 26.2663 97.5465C26.8992 97.7889 27.4446 98.1323 27.9025 98.5767C28.3738 99.0211 28.7374 99.553 28.9932 100.172C29.2626 100.778 29.3973 101.452 29.3973 102.192ZM15.7968 106.657C16.6991 106.172 17.433 105.546 17.9986 104.778L16.4028 103.687C15.9719 104.307 15.4265 104.778 14.7666 105.101C14.1067 105.424 13.3728 105.586 12.5648 105.586C11.7433 105.586 10.9959 105.438 10.3226 105.142C9.66274 104.845 9.09714 104.441 8.62581 103.93C8.16794 103.404 7.81108 102.792 7.55521 102.091C7.31281 101.391 7.19161 100.637 7.19161 99.8291C7.19161 99.048 7.31954 98.3141 7.57541 97.6273C7.83128 96.927 8.19488 96.3143 8.66621 95.7891C9.13754 95.2639 9.70314 94.8531 10.363 94.5569C11.0363 94.2471 11.7905 94.0923 12.6254 94.0923C13.3661 94.0923 14.0529 94.2539 14.6858 94.5771C15.3322 94.8868 15.8305 95.2841 16.1806 95.7689L17.7562 94.5569C17.4869 94.1933 17.1637 93.8768 16.7866 93.6075C16.4095 93.3247 15.9921 93.089 15.5342 92.9005C15.0763 92.7119 14.5983 92.5705 14.1 92.4763C13.6017 92.382 13.1102 92.3349 12.6254 92.3349C11.5346 92.3349 10.5246 92.5167 9.59541 92.8803C8.66621 93.2439 7.85821 93.7556 7.17141 94.4155C6.49808 95.0619 5.96614 95.8497 5.57561 96.7789C5.19854 97.6946 5.01001 98.7113 5.01001 99.8291C5.01001 100.933 5.19854 101.95 5.57561 102.879C5.95268 103.795 6.47114 104.59 7.13101 105.263C7.80434 105.923 8.59888 106.441 9.51461 106.818C10.4438 107.182 11.4538 107.364 12.5446 107.364C13.8105 107.364 14.8945 107.128 15.7968 106.657Z" fill="white"/>
<path fill-rule="evenodd" clip-rule="evenodd" d="M233.275 63V45.72C233.275 44.824 233.212 43.9706 233.083 43.16C232.955 42.3493 232.7 41.6453 232.316 41.048C231.974 40.408 231.505 39.9173 230.908 39.576C230.31 39.192 229.542 39 228.604 39C226.769 39 225.361 39.6613 224.38 40.984C223.398 42.264 222.908 43.864 222.908 45.784V63H212.411V14.616H222.908V35.16H223.036C223.761 33.88 224.913 32.7493 226.492 31.768C228.07 30.744 229.969 30.232 232.188 30.232C234.363 30.232 236.177 30.616 237.628 31.384C239.121 32.152 240.316 33.1546 241.212 34.392C242.15 35.5866 242.811 36.9733 243.195 38.552C243.622 40.1306 243.836 41.7093 243.836 43.288V63H233.275ZM251.911 31.128V63H262.408V31.128H251.911ZM262.664 23.256C263.005 22.5307 263.176 21.7627 263.176 20.952C263.176 20.1413 263.005 19.3947 262.664 18.712C262.365 17.9867 261.938 17.368 261.384 16.856C260.872 16.344 260.232 15.9387 259.464 15.64C258.738 15.3414 257.97 15.192 257.159 15.192C256.306 15.192 255.517 15.3627 254.792 15.704C254.066 16.0027 253.426 16.408 252.872 16.92C252.317 17.432 251.89 18.0507 251.592 18.776C251.293 19.4587 251.143 20.184 251.143 20.952C251.143 22.5307 251.72 23.896 252.872 25.048C254.023 26.1573 255.453 26.712 257.159 26.712C257.97 26.712 258.738 26.5627 259.464 26.264C260.232 25.9654 260.872 25.56 261.384 25.048C261.938 24.536 262.365 23.9387 262.664 23.256ZM312.301 51.16V39H319.789V31.128H312.301V22.744H301.996V31.128H296.94V39H302.06V52.44C302.06 54.1467 302.253 55.704 302.637 57.112C303.021 58.4774 303.639 59.672 304.492 60.696C305.388 61.6774 306.562 62.4454 308.013 63C309.463 63.512 311.255 63.768 313.388 63.768C314.498 63.768 315.607 63.6614 316.716 63.448C317.826 63.2774 318.743 63.064 319.469 62.808L319.341 55.128C318.957 55.2987 318.466 55.4267 317.868 55.512C317.314 55.5974 316.78 55.64 316.268 55.64C314.775 55.64 313.73 55.2774 313.133 54.552C312.578 53.784 312.301 52.6534 312.301 51.16ZM348.401 46.936C348.401 45.912 348.23 44.9093 347.889 43.928C347.548 42.9467 347.057 42.0933 346.417 41.368C345.777 40.6 344.988 39.9813 344.049 39.512C343.11 39.0427 342.022 38.808 340.785 38.808C339.548 38.808 338.46 39.0427 337.521 39.512C336.582 39.9813 335.793 40.6 335.153 41.368C334.556 42.0933 334.086 42.9467 333.745 43.928C333.446 44.9093 333.297 45.912 333.297 46.936C333.297 47.96 333.446 48.9627 333.745 49.944C334.086 50.9253 334.577 51.8213 335.217 52.632C335.857 53.4 336.646 54.0187 337.585 54.488C338.524 54.9573 339.612 55.192 340.849 55.192C342.086 55.192 343.174 54.9573 344.113 54.488C345.052 54.0187 345.841 53.4 346.481 52.632C347.121 51.8213 347.59 50.9253 347.889 49.944C348.23 48.9627 348.401 47.96 348.401 46.936ZM358.513 46.936C358.513 49.5387 358.044 51.9067 357.105 54.04C356.166 56.1307 354.886 57.9227 353.265 59.416C351.644 60.8667 349.766 61.9973 347.633 62.808C345.5 63.6187 343.217 64.024 340.785 64.024C338.396 64.024 336.113 63.6187 333.937 62.808C331.804 61.9973 329.926 60.8667 328.305 59.416C326.726 57.9227 325.468 56.1307 324.529 54.04C323.59 51.9067 323.121 49.5387 323.121 46.936C323.121 44.3333 323.59 41.9867 324.529 39.896C325.468 37.8053 326.726 36.0347 328.305 34.584C329.926 33.1333 331.804 32.024 333.937 31.256C336.113 30.488 338.396 30.104 340.785 30.104C343.217 30.104 345.5 30.488 347.633 31.256C349.766 32.024 351.644 33.1333 353.265 34.584C354.886 36.0347 356.166 37.8053 357.105 39.896C358.044 41.9867 358.513 44.3333 358.513 46.936ZM384.422 39.4481C384.892 39.4907 385.361 39.5761 385.831 39.7041L386.279 30.4881C386.022 30.4027 385.681 30.3387 385.255 30.2961C384.871 30.2534 384.465 30.2321 384.039 30.2321C382.076 30.2321 380.348 30.7441 378.854 31.7681C377.361 32.7921 376.209 34.1147 375.398 35.7361H375.271V31.1281H365.159V63.0001H375.655V46.6161C375.655 45.9761 375.783 45.2294 376.039 44.3761C376.295 43.5227 376.7 42.7334 377.255 42.0081C377.852 41.2827 378.62 40.6641 379.559 40.1521C380.54 39.6401 381.735 39.3841 383.143 39.3841C383.569 39.3841 383.996 39.4054 384.422 39.4481ZM406.342 72.2161C407.152 70.9361 407.878 69.4641 408.518 67.8001L422.79 31.1281H411.654L405.318 51.6081H405.126L398.022 31.1281H386.374L399.686 62.4881L398.662 65.1121C398.15 66.4774 397.531 67.5227 396.806 68.2481C396.08 69.0161 394.907 69.4001 393.286 69.4001C392.774 69.4001 392.198 69.3361 391.558 69.2081C390.96 69.1227 390.406 68.9947 389.894 68.8241L388.742 77.6561C389.51 77.8694 390.406 78.0401 391.43 78.1681C392.496 78.2961 393.52 78.3601 394.502 78.3601C396.507 78.3601 398.235 78.1254 399.686 77.6561C401.179 77.1867 402.459 76.4827 403.526 75.5441C404.635 74.6481 405.574 73.5387 406.342 72.2161ZM289.473 40.536C288.62 39.7253 287.617 39.0427 286.465 38.488C285.313 37.9333 284.097 37.656 282.817 37.656C281.836 37.656 280.918 37.848 280.065 38.232C279.254 38.616 278.849 39.2773 278.849 40.216C278.849 41.112 279.297 41.752 280.193 42.136C281.132 42.52 282.625 42.9467 284.673 43.416C285.868 43.672 287.062 44.0347 288.257 44.504C289.494 44.9733 290.604 45.592 291.585 46.36C292.566 47.128 293.356 48.0667 293.953 49.176C294.55 50.2853 294.849 51.608 294.849 53.144C294.849 55.1493 294.444 56.856 293.633 58.264C292.822 59.6293 291.756 60.7387 290.433 61.592C289.153 62.4453 287.702 63.064 286.081 63.448C284.46 63.832 282.838 64.024 281.217 64.024C278.614 64.024 276.054 63.6187 273.537 62.808C271.062 61.9547 268.993 60.7173 267.329 59.096L273.217 52.888C274.156 53.912 275.308 54.7653 276.673 55.448C278.038 56.1307 279.489 56.472 281.025 56.472C281.878 56.472 282.71 56.28 283.521 55.896C284.374 55.4693 284.801 54.744 284.801 53.72C284.801 52.7387 284.289 52.0133 283.265 51.544C282.241 51.0747 280.641 50.584 278.465 50.072C277.356 49.816 276.246 49.4747 275.137 49.048C274.028 48.6213 273.025 48.0453 272.129 47.32C271.276 46.5947 270.572 45.6987 270.017 44.632C269.462 43.5653 269.185 42.2853 269.185 40.792C269.185 38.872 269.59 37.2507 270.401 35.928C271.212 34.5627 272.257 33.4533 273.537 32.6C274.817 31.7467 276.225 31.128 277.761 30.744C279.34 30.3173 280.897 30.104 282.433 30.104C284.822 30.104 287.148 30.488 289.409 31.256C291.713 31.9813 293.654 33.0907 295.233 34.584L289.473 40.536ZM166.113 31.448C163.639 32.344 161.463 33.688 159.585 35.48L164.898 41.176C165.879 40.28 167.052 39.512 168.417 38.872C169.826 38.232 171.276 37.912 172.77 37.912C174.391 37.912 175.756 38.296 176.866 39.064C177.975 39.7893 178.529 40.9413 178.529 42.52V43.032C176.225 43.032 173.858 43.16 171.426 43.416C168.993 43.672 166.775 44.184 164.77 44.952C162.807 45.72 161.186 46.808 159.906 48.216C158.668 49.624 158.049 51.48 158.049 53.784C158.049 55.6613 158.412 57.24 159.137 58.52C159.863 59.8 160.78 60.824 161.889 61.592C163.041 62.36 164.3 62.9147 165.665 63.256C167.031 63.5973 168.354 63.768 169.633 63.768C171.553 63.768 173.324 63.4053 174.945 62.68C176.609 61.9547 177.847 60.9307 178.658 59.608H178.85V63H188.449V46.936C188.449 44.0347 188.172 41.5387 187.618 39.448C187.105 37.3147 186.273 35.5653 185.122 34.2C183.97 32.792 182.455 31.768 180.577 31.128C178.743 30.4453 176.482 30.104 173.794 30.104C171.191 30.104 168.631 30.552 166.113 31.448ZM177.505 49.112H178.85V50.2C178.85 52.2053 178.273 53.8053 177.122 55C176.012 56.152 174.391 56.728 172.258 56.728C171.746 56.728 171.212 56.6853 170.658 56.6C170.103 56.472 169.612 56.28 169.186 56.024C168.759 55.768 168.396 55.4267 168.098 55C167.842 54.5733 167.714 54.0613 167.714 53.464C167.714 52.5253 168.012 51.7787 168.609 51.224C169.207 50.6267 169.954 50.1787 170.85 49.88C171.788 49.5813 172.834 49.3893 173.986 49.304C175.18 49.176 176.353 49.112 177.505 49.112ZM141.613 63.0001V45.5921C141.613 44.6961 141.549 43.8427 141.421 43.0321C141.293 42.1787 141.058 41.4534 140.717 40.8561C140.375 40.2587 139.906 39.7894 139.309 39.4481C138.754 39.0641 138.007 38.8721 137.069 38.8721C136.173 38.8721 135.383 39.0641 134.701 39.4481C134.061 39.8321 133.506 40.3441 133.036 40.9841C132.61 41.6241 132.29 42.3707 132.077 43.2241C131.863 44.0347 131.757 44.8881 131.757 45.7841V63.0001H121.261V44.8241C121.261 42.9894 120.898 41.5387 120.173 40.4721C119.447 39.4054 118.295 38.8721 116.717 38.8721C115.053 38.8721 113.751 39.5334 112.813 40.8561C111.917 42.1787 111.469 43.8001 111.469 45.7201V63.0001H100.909V31.1281H111.085V35.5441H111.213C111.597 34.8614 112.066 34.2001 112.621 33.5601C113.218 32.9201 113.922 32.3654 114.733 31.8961C115.543 31.3841 116.439 30.9787 117.421 30.6801C118.445 30.3814 119.554 30.2321 120.749 30.2321C123.053 30.2321 124.994 30.7014 126.573 31.6401C128.194 32.5787 129.453 33.9227 130.349 35.6721C131.415 34.0081 132.781 32.6854 134.445 31.7041C136.109 30.7227 138.135 30.2321 140.525 30.2321C142.701 30.2321 144.514 30.6374 145.965 31.4481C147.458 32.2161 148.653 33.2401 149.549 34.5201C150.445 35.7574 151.085 37.1654 151.469 38.7441C151.895 40.2801 152.109 41.7947 152.109 43.2881V63.0001H141.613ZM82.0155 43.8001C82.3995 44.7814 82.5915 45.8054 82.5915 46.8721C82.5915 47.9814 82.3995 49.0267 82.0155 50.0081C81.6741 50.9894 81.1621 51.8427 80.4795 52.5681C79.8395 53.2934 79.0288 53.8907 78.0475 54.3601C77.1088 54.7867 76.0421 55.0001 74.8475 55.0001C73.6528 55.0001 72.5861 54.7867 71.6475 54.3601C70.7515 53.8907 69.9835 53.2934 69.3435 52.5681C68.7035 51.8001 68.2128 50.9254 67.8715 49.9441C67.5301 48.9627 67.3595 47.9387 67.3595 46.8721C67.3595 45.7627 67.5301 44.7174 67.8715 43.7361C68.2128 42.7547 68.7035 41.9014 69.3435 41.1761C69.9835 40.4507 70.7515 39.8747 71.6475 39.4481C72.5861 39.0214 73.6528 38.8081 74.8475 38.8081C76.0421 38.8081 77.1088 39.0214 78.0475 39.4481C78.9861 39.8747 79.7968 40.4721 80.4795 41.2401C81.1621 41.9654 81.6741 42.8187 82.0155 43.8001ZM91.2315 68.1201C92.1275 65.8161 92.5755 63.1067 92.5755 59.9921V31.1281H82.6555V35.2241H82.5275C81.4181 33.5174 79.9461 32.2587 78.1115 31.4481C76.2768 30.6374 74.3568 30.2321 72.3515 30.2321C69.9621 30.2321 67.8288 30.7014 65.9515 31.6401C64.0741 32.5361 62.4741 33.7521 61.1515 35.2881C59.8715 36.8241 58.8901 38.5947 58.2075 40.6001C57.5248 42.6054 57.1835 44.7174 57.1835 46.9361C57.1835 49.1547 57.5248 51.2667 58.2075 53.2721C58.8901 55.2347 59.8715 56.9627 61.1515 58.4561C62.4741 59.9494 64.0741 61.1441 65.9515 62.0401C67.8288 62.8934 69.9835 63.3201 72.4155 63.3201C74.5488 63.3201 76.4475 62.9361 78.1115 62.1681C79.7755 61.4001 81.0981 60.3761 82.0795 59.0961H82.2715V61.0161C82.2715 63.7041 81.5248 65.8587 80.0315 67.4801C78.5808 69.1014 76.3195 69.9121 73.2475 69.9121C71.4555 69.9121 69.6208 69.5707 67.7435 68.8881C65.9088 68.2481 64.2235 67.2454 62.6875 65.8801L57.4395 73.3681C59.6155 74.9894 62.1755 76.2267 65.1195 77.0801C68.1061 77.9334 71.0075 78.3601 73.8235 78.3601C76.6395 78.3601 79.1995 77.9761 81.5035 77.2081C83.8501 76.4827 85.8341 75.3521 87.4555 73.8161C89.0768 72.3227 90.3355 70.4241 91.2315 68.1201ZM39.974 63V31.128H50.47V63H39.974ZM51.238 20.952C51.238 21.7627 51.0673 22.5307 50.726 23.256C50.4273 23.9387 50.0007 24.536 49.446 25.048C48.934 25.56 48.294 25.9654 47.526 26.264C46.8007 26.5627 46.0327 26.712 45.222 26.712C43.5153 26.712 42.086 26.1573 40.934 25.048C39.782 23.896 39.206 22.5307 39.206 20.952C39.206 20.184 39.3553 19.4587 39.654 18.776C39.9527 18.0507 40.3793 17.432 40.934 16.92C41.4887 16.408 42.1287 16.0027 42.854 15.704C43.5793 15.3627 44.3687 15.192 45.222 15.192C46.0327 15.192 46.8007 15.3414 47.526 15.64C48.294 15.9387 48.934 16.344 49.446 16.856C50.0007 17.368 50.4273 17.9867 50.726 18.712C51.0673 19.3947 51.238 20.1413 51.238 20.952ZM15.488 36.376V27.032H34.496V17.688H4.672V63H15.488V45.4H33.024V36.376H15.488Z" fill="white"/>
</svg>
