<svg width="446" height="112" viewBox="0 0 446 112" fill="none" xmlns="http://www.w3.org/2000/svg">
    <g clip-path="url(#clip0_68_164881)">
        <path id="subtitle"
            d="M13.9986 104.778C13.433 105.546 12.6991 106.172 11.7968 106.657C10.8945 107.128 9.81047 107.364 8.5446 107.364C7.4538 107.364 6.4438 107.182 5.5146 106.818C4.59887 106.441 3.80433 105.923 3.131 105.263C2.47113 104.589 1.95267 103.795 1.5756 102.879C1.19853 101.95 1.01 100.933 1.01 99.829C1.01 98.7113 1.19853 97.6945 1.5756 96.7788C1.96613 95.8496 2.49807 95.0618 3.1714 94.4154C3.8582 93.7555 4.6662 93.2438 5.5954 92.8802C6.5246 92.5166 7.5346 92.3348 8.6254 92.3348C9.1102 92.3348 9.60173 92.3819 10.1 92.4762C10.5983 92.5705 11.0763 92.7119 11.5342 92.9004C11.9921 93.0889 12.4095 93.3246 12.7866 93.6074C13.1637 93.8767 13.4869 94.1932 13.7562 94.5568L12.1806 95.7688C11.8305 95.284 11.3322 94.8867 10.6858 94.577C10.0529 94.2538 9.36607 94.0922 8.6254 94.0922C7.79047 94.0922 7.03633 94.2471 6.363 94.5568C5.70313 94.8531 5.13753 95.2638 4.6662 95.789C4.19487 96.3142 3.83127 96.9269 3.5754 97.6272C3.31953 98.314 3.1916 99.0479 3.1916 99.829C3.1916 100.637 3.3128 101.391 3.5552 102.091C3.81107 102.792 4.16793 103.404 4.6258 103.93C5.09713 104.441 5.66273 104.845 6.3226 105.142C6.99593 105.438 7.74333 105.586 8.5648 105.586C9.3728 105.586 10.1067 105.424 10.7666 105.101C11.4265 104.778 11.9719 104.307 12.4028 103.687L13.9986 104.778ZM23.4176 102.192C23.4176 101.735 23.3436 101.297 23.1954 100.879C23.0608 100.462 22.8588 100.098 22.5894 99.7886C22.3201 99.4654 21.9834 99.2095 21.5794 99.021C21.1889 98.8325 20.7378 98.7382 20.226 98.7382C19.7143 98.7382 19.2564 98.8325 18.8524 99.021C18.4619 99.2095 18.132 99.4654 17.8626 99.7886C17.5933 100.098 17.3846 100.462 17.2364 100.879C17.1018 101.297 17.0344 101.735 17.0344 102.192C17.0344 102.65 17.1018 103.088 17.2364 103.505C17.3846 103.923 17.5933 104.293 17.8626 104.616C18.132 104.94 18.4619 105.195 18.8524 105.384C19.2564 105.573 19.7143 105.667 20.226 105.667C20.7378 105.667 21.1889 105.573 21.5794 105.384C21.9834 105.195 22.3201 104.94 22.5894 104.616C22.8588 104.293 23.0608 103.923 23.1954 103.505C23.3436 103.088 23.4176 102.65 23.4176 102.192ZM25.3972 102.192C25.3972 102.933 25.2626 103.613 24.9932 104.233C24.7374 104.852 24.3738 105.391 23.9024 105.849C23.4446 106.293 22.8992 106.643 22.2662 106.899C21.6333 107.141 20.9532 107.263 20.226 107.263C19.4988 107.263 18.8188 107.141 18.1858 106.899C17.5529 106.643 17.0075 106.293 16.5496 105.849C16.0918 105.391 15.7282 104.852 15.4588 104.233C15.203 103.613 15.075 102.933 15.075 102.192C15.075 101.452 15.203 100.778 15.4588 100.172C15.7282 99.5529 16.0918 99.021 16.5496 98.5766C17.0075 98.1322 17.5529 97.7888 18.1858 97.5464C18.8188 97.2905 19.4988 97.1626 20.226 97.1626C20.9532 97.1626 21.6333 97.2905 22.2662 97.5464C22.8992 97.7888 23.4446 98.1322 23.9024 98.5766C24.3738 99.021 24.7374 99.5529 24.9932 100.172C25.2626 100.778 25.3972 101.452 25.3972 102.192ZM29.8887 99.0008C30.1311 98.4891 30.5149 98.0581 31.0401 97.708C31.5788 97.3444 32.2117 97.1626 32.9389 97.1626C33.5853 97.1626 34.1644 97.3107 34.6761 97.607C35.2013 97.9033 35.6121 98.3948 35.9083 99.0816C36.2315 98.4621 36.6827 97.9908 37.2617 97.6676C37.8408 97.3309 38.4737 97.1626 39.1605 97.1626C39.78 97.1626 40.3119 97.2703 40.7563 97.4858C41.2007 97.6878 41.5711 97.9639 41.8673 98.314C42.1636 98.6641 42.3791 99.0749 42.5137 99.5462C42.6619 100.018 42.7359 100.523 42.7359 101.061V107H40.8371V101.687C40.8371 101.297 40.8035 100.927 40.7361 100.576C40.6688 100.226 40.5543 99.9165 40.3927 99.6472C40.2311 99.3779 40.0157 99.1624 39.7463 99.0008C39.477 98.8392 39.1336 98.7584 38.7161 98.7584C38.2852 98.7584 37.9149 98.8527 37.6051 99.0412C37.2954 99.2163 37.0395 99.4519 36.8375 99.7482C36.649 100.031 36.5076 100.354 36.4133 100.718C36.3325 101.081 36.2921 101.452 36.2921 101.829V107H34.3933V101.304C34.3933 100.927 34.3597 100.583 34.2923 100.273C34.225 99.9637 34.1105 99.7011 33.9489 99.4856C33.7873 99.2567 33.5786 99.0816 33.3227 98.9604C33.0669 98.8257 32.7504 98.7584 32.3733 98.7584C31.6731 98.7584 31.0873 99.0479 30.6159 99.627C30.1581 100.193 29.9291 100.953 29.9291 101.91V107H28.0303V99.4856C28.0303 99.2297 28.0236 98.8998 28.0101 98.4958C27.9967 98.0918 27.9765 97.7349 27.9495 97.4252H29.7473C29.7743 97.6676 29.7945 97.9437 29.8079 98.2534C29.8214 98.5497 29.8281 98.7988 29.8281 99.0008H29.8887ZM54.1433 102.192C54.1433 101.748 54.0759 101.317 53.9413 100.9C53.8066 100.482 53.6046 100.112 53.3353 99.7886C53.0659 99.4654 52.7293 99.2095 52.3253 99.021C51.9347 98.8325 51.4769 98.7382 50.9517 98.7382C50.4669 98.7382 50.0225 98.8325 49.6185 99.021C49.2279 99.2095 48.8913 99.4654 48.6085 99.7886C48.3257 100.112 48.1035 100.482 47.9419 100.9C47.7937 101.317 47.7197 101.755 47.7197 102.213C47.7197 102.67 47.7937 103.108 47.9419 103.526C48.1035 103.943 48.3257 104.313 48.6085 104.637C48.8913 104.946 49.2279 105.195 49.6185 105.384C50.0225 105.573 50.4669 105.667 50.9517 105.667C51.4769 105.667 51.9347 105.573 52.3253 105.384C52.7293 105.182 53.0659 104.919 53.3353 104.596C53.6046 104.273 53.8066 103.903 53.9413 103.485C54.0759 103.068 54.1433 102.637 54.1433 102.192ZM47.8409 111.848H45.9421V97.4252H47.8005V98.92H47.8611C48.1708 98.4083 48.6219 97.9908 49.2145 97.6676C49.8205 97.3309 50.5207 97.1626 51.3153 97.1626C52.029 97.1626 52.6754 97.2905 53.2545 97.5464C53.847 97.8023 54.352 98.1591 54.7695 98.617C55.2004 99.0749 55.5303 99.6135 55.7593 100.233C55.9882 100.839 56.1027 101.492 56.1027 102.192C56.1027 102.893 55.9882 103.553 55.7593 104.172C55.5303 104.791 55.2071 105.33 54.7897 105.788C54.3722 106.246 53.8672 106.609 53.2747 106.879C52.6821 107.135 52.0155 107.263 51.2749 107.263C50.5881 107.263 49.9417 107.114 49.3357 106.818C48.7297 106.522 48.2516 106.104 47.9015 105.566H47.8409V111.848ZM64.239 102.435C63.7677 102.435 63.2761 102.455 62.7644 102.495C62.2661 102.536 61.8083 102.617 61.3908 102.738C60.9868 102.859 60.6501 103.041 60.3808 103.283C60.1115 103.526 59.9768 103.849 59.9768 104.253C59.9768 104.536 60.0307 104.771 60.1384 104.96C60.2596 105.148 60.4145 105.303 60.603 105.424C60.7915 105.546 61.0003 105.633 61.2292 105.687C61.4581 105.727 61.6938 105.748 61.9362 105.748C62.825 105.748 63.5051 105.485 63.9764 104.96C64.4612 104.421 64.7036 103.748 64.7036 102.94V102.435H64.239ZM64.7036 100.799C64.7036 100.085 64.4881 99.5597 64.0572 99.223C63.6263 98.8729 63.0539 98.6978 62.3402 98.6978C61.8015 98.6978 61.2898 98.8055 60.805 99.021C60.3337 99.223 59.9364 99.4856 59.6132 99.8088L58.6032 98.5968C59.0745 98.1524 59.6469 97.8023 60.3202 97.5464C61.007 97.2905 61.7409 97.1626 62.522 97.1626C63.2088 97.1626 63.8013 97.2636 64.2996 97.4656C64.8113 97.6541 65.2288 97.9167 65.552 98.2534C65.8752 98.5901 66.1176 98.9873 66.2792 99.4452C66.4408 99.9031 66.5216 100.395 66.5216 100.92V105.101C66.5216 105.424 66.5283 105.768 66.5418 106.131C66.5687 106.482 66.6091 106.771 66.663 107H64.946C64.8383 106.542 64.7844 106.084 64.7844 105.626H64.7238C64.3737 106.138 63.9293 106.535 63.3906 106.818C62.8654 107.101 62.2392 107.242 61.512 107.242C61.1349 107.242 60.7377 107.189 60.3202 107.081C59.9162 106.987 59.5459 106.825 59.2092 106.596C58.8725 106.367 58.5897 106.064 58.3608 105.687C58.1453 105.31 58.0376 104.845 58.0376 104.293C58.0376 103.566 58.2329 102.994 58.6234 102.576C59.0139 102.145 59.5257 101.822 60.1586 101.607C60.7915 101.378 61.5053 101.23 62.2998 101.162C63.0943 101.095 63.8956 101.061 64.7036 101.061V100.799ZM69.6928 99.4856C69.6928 99.2297 69.6861 98.8998 69.6726 98.4958C69.6592 98.0918 69.639 97.7349 69.612 97.4252H71.4098C71.4368 97.6676 71.457 97.9504 71.4704 98.2736C71.4839 98.5833 71.4906 98.8392 71.4906 99.0412H71.5512C71.8206 98.4756 72.2111 98.0245 72.7228 97.6878C73.248 97.3377 73.8338 97.1626 74.4802 97.1626C74.7765 97.1626 75.0256 97.1895 75.2276 97.2434L75.1468 99.0008C74.8775 98.9335 74.588 98.8998 74.2782 98.8998C73.8204 98.8998 73.4231 98.9873 73.0864 99.1624C72.7498 99.324 72.467 99.5462 72.238 99.829C72.0226 100.112 71.861 100.442 71.7532 100.819C71.6455 101.182 71.5916 101.566 71.5916 101.97V107H69.6928V99.4856ZM85.5847 102.132C85.5847 102.24 85.5847 102.347 85.5847 102.455C85.5847 102.563 85.578 102.67 85.5645 102.778H77.9693C77.9828 103.182 78.0703 103.566 78.2319 103.93C78.407 104.28 78.6359 104.589 78.9187 104.859C79.2015 105.115 79.5247 105.317 79.8883 105.465C80.2654 105.613 80.6627 105.687 81.0801 105.687C81.7265 105.687 82.2854 105.546 82.7567 105.263C83.2281 104.98 83.5984 104.637 83.8677 104.233L85.2009 105.303C84.6892 105.977 84.0832 106.475 83.3829 106.798C82.6961 107.108 81.9285 107.263 81.0801 107.263C80.3529 107.263 79.6796 107.141 79.0601 106.899C78.4407 106.657 77.9087 106.32 77.4643 105.889C77.0199 105.445 76.6698 104.913 76.4139 104.293C76.1581 103.674 76.0301 102.987 76.0301 102.233C76.0301 101.492 76.1513 100.812 76.3937 100.193C76.6496 99.5597 76.9997 99.021 77.4441 98.5766C77.8885 98.1322 78.4137 97.7888 79.0197 97.5464C79.6257 97.2905 80.2789 97.1626 80.9791 97.1626C81.6794 97.1626 82.3123 97.2771 82.8779 97.506C83.457 97.7349 83.9418 98.0649 84.3323 98.4958C84.7363 98.9267 85.0461 99.4519 85.2615 100.071C85.477 100.677 85.5847 101.364 85.5847 102.132ZM83.6657 101.364C83.6523 100.987 83.5849 100.637 83.4637 100.314C83.356 99.9771 83.1877 99.6876 82.9587 99.4452C82.7433 99.2028 82.4672 99.0143 82.1305 98.8796C81.8073 98.7315 81.4235 98.6574 80.9791 98.6574C80.5751 98.6574 80.1913 98.7315 79.8277 98.8796C79.4776 99.0143 79.1679 99.2028 78.8985 99.4452C78.6427 99.6876 78.4272 99.9771 78.2521 100.314C78.0905 100.637 77.9963 100.987 77.9693 101.364H83.6657ZM94.619 102.192C94.619 102.637 94.6863 103.068 94.821 103.485C94.9557 103.903 95.1577 104.273 95.427 104.596C95.6963 104.919 96.0263 105.182 96.4168 105.384C96.8073 105.573 97.2652 105.667 97.7904 105.667C98.2752 105.667 98.7129 105.573 99.1034 105.384C99.5074 105.195 99.8508 104.946 100.134 104.637C100.416 104.313 100.632 103.943 100.78 103.526C100.942 103.108 101.022 102.67 101.022 102.213C101.022 101.755 100.942 101.317 100.78 100.9C100.632 100.482 100.416 100.112 100.134 99.7886C99.8508 99.4654 99.5074 99.2095 99.1034 99.021C98.7129 98.8325 98.2752 98.7382 97.7904 98.7382C97.2652 98.7382 96.8073 98.8325 96.4168 99.021C96.0263 99.2095 95.6963 99.4654 95.427 99.7886C95.1577 100.112 94.9557 100.482 94.821 100.9C94.6863 101.317 94.619 101.748 94.619 102.192ZM100.921 105.485C100.558 106.064 100.06 106.508 99.4266 106.818C98.8071 107.114 98.154 107.263 97.4672 107.263C96.7265 107.263 96.0599 107.135 95.4674 106.879C94.8749 106.609 94.3699 106.246 93.9524 105.788C93.5349 105.33 93.2117 104.791 92.9828 104.172C92.7539 103.553 92.6394 102.893 92.6394 102.192C92.6394 101.492 92.7539 100.839 92.9828 100.233C93.2117 99.6135 93.5349 99.0749 93.9524 98.617C94.3833 98.1591 94.8951 97.8023 95.4876 97.5464C96.0801 97.2905 96.7333 97.1626 97.447 97.1626C98.2281 97.1626 98.9081 97.3309 99.4872 97.6676C100.066 97.9908 100.524 98.3881 100.861 98.8594H100.901V91.7288H102.8V107H100.962V105.485H100.921ZM108.35 93.971C108.35 94.3211 108.222 94.6107 107.966 94.8396C107.724 95.0685 107.428 95.183 107.078 95.183C106.728 95.183 106.431 95.0685 106.189 94.8396C105.946 94.5972 105.825 94.3077 105.825 93.971C105.825 93.6209 105.946 93.3313 106.189 93.1024C106.431 92.86 106.728 92.7388 107.078 92.7388C107.428 92.7388 107.724 92.86 107.966 93.1024C108.222 93.3313 108.35 93.6209 108.35 93.971ZM108.027 107H106.128V97.4252H108.027V107ZM115.84 98.9806H113.618V107H111.719V98.9806H109.821V97.4252H111.719V95.4254C111.719 94.8598 111.78 94.3413 111.901 93.87C112.036 93.3852 112.245 92.9677 112.527 92.6176C112.824 92.2675 113.194 91.9914 113.638 91.7894C114.096 91.5874 114.648 91.4864 115.295 91.4864C115.753 91.4864 116.15 91.5335 116.487 91.6278L116.264 93.264C116.116 93.2236 115.968 93.1899 115.82 93.163C115.672 93.1361 115.504 93.1226 115.315 93.1226C114.951 93.1226 114.655 93.1899 114.426 93.3246C114.211 93.4458 114.042 93.6141 113.921 93.8296C113.8 94.0451 113.719 94.2942 113.679 94.577C113.638 94.8463 113.618 95.1291 113.618 95.4254V97.4252H115.84V98.9806ZM121.66 98.9806H119.438V107H117.539V98.9806H115.64V97.4252H117.539V95.4254C117.539 94.8598 117.599 94.3413 117.721 93.87C117.855 93.3852 118.064 92.9677 118.347 92.6176C118.643 92.2675 119.013 91.9914 119.458 91.7894C119.916 91.5874 120.468 91.4864 121.114 91.4864C121.572 91.4864 121.969 91.5335 122.306 91.6278L122.084 93.264C121.936 93.2236 121.787 93.1899 121.639 93.163C121.491 93.1361 121.323 93.1226 121.134 93.1226C120.771 93.1226 120.474 93.1899 120.246 93.3246C120.03 93.4458 119.862 93.6141 119.741 93.8296C119.619 94.0451 119.539 94.2942 119.498 94.577C119.458 94.8463 119.438 95.1291 119.438 95.4254V97.4252H121.66V98.9806ZM132.337 102.132C132.337 102.24 132.337 102.347 132.337 102.455C132.337 102.563 132.33 102.67 132.316 102.778H124.721C124.735 103.182 124.822 103.566 124.984 103.93C125.159 104.28 125.388 104.589 125.671 104.859C125.953 105.115 126.277 105.317 126.64 105.465C127.017 105.613 127.415 105.687 127.832 105.687C128.478 105.687 129.037 105.546 129.509 105.263C129.98 104.98 130.35 104.637 130.62 104.233L131.953 105.303C131.441 105.977 130.835 106.475 130.135 106.798C129.448 107.108 128.68 107.263 127.832 107.263C127.105 107.263 126.432 107.141 125.812 106.899C125.193 106.657 124.661 106.32 124.216 105.889C123.772 105.445 123.422 104.913 123.166 104.293C122.91 103.674 122.782 102.987 122.782 102.233C122.782 101.492 122.903 100.812 123.146 100.193C123.402 99.5597 123.752 99.021 124.196 98.5766C124.64 98.1322 125.166 97.7888 125.772 97.5464C126.378 97.2905 127.031 97.1626 127.731 97.1626C128.431 97.1626 129.064 97.2771 129.63 97.506C130.209 97.7349 130.694 98.0649 131.084 98.4958C131.488 98.9267 131.798 99.4519 132.013 100.071C132.229 100.677 132.337 101.364 132.337 102.132ZM130.418 101.364C130.404 100.987 130.337 100.637 130.216 100.314C130.108 99.9771 129.94 99.6876 129.711 99.4452C129.495 99.2028 129.219 99.0143 128.882 98.8796C128.559 98.7315 128.175 98.6574 127.731 98.6574C127.327 98.6574 126.943 98.7315 126.58 98.8796C126.23 99.0143 125.92 99.2028 125.65 99.4452C125.395 99.6876 125.179 99.9771 125.004 100.314C124.842 100.637 124.748 100.987 124.721 101.364H130.418ZM134.988 99.4856C134.988 99.2297 134.981 98.8998 134.968 98.4958C134.954 98.0918 134.934 97.7349 134.907 97.4252H136.705C136.732 97.6676 136.752 97.9504 136.765 98.2736C136.779 98.5833 136.786 98.8392 136.786 99.0412H136.846C137.115 98.4756 137.506 98.0245 138.018 97.6878C138.543 97.3377 139.129 97.1626 139.775 97.1626C140.071 97.1626 140.321 97.1895 140.523 97.2434L140.442 99.0008C140.172 98.9335 139.883 98.8998 139.573 98.8998C139.115 98.8998 138.718 98.9873 138.381 99.1624C138.045 99.324 137.762 99.5462 137.533 99.829C137.317 100.112 137.156 100.442 137.048 100.819C136.94 101.182 136.887 101.566 136.887 101.97V107H134.988V99.4856ZM150.88 102.132C150.88 102.24 150.88 102.347 150.88 102.455C150.88 102.563 150.873 102.67 150.859 102.778H143.264C143.278 103.182 143.365 103.566 143.527 103.93C143.702 104.28 143.931 104.589 144.214 104.859C144.496 105.115 144.82 105.317 145.183 105.465C145.56 105.613 145.958 105.687 146.375 105.687C147.021 105.687 147.58 105.546 148.052 105.263C148.523 104.98 148.893 104.637 149.163 104.233L150.496 105.303C149.984 105.977 149.378 106.475 148.678 106.798C147.991 107.108 147.223 107.263 146.375 107.263C145.648 107.263 144.975 107.141 144.355 106.899C143.736 106.657 143.204 106.32 142.759 105.889C142.315 105.445 141.965 104.913 141.709 104.293C141.453 103.674 141.325 102.987 141.325 102.233C141.325 101.492 141.446 100.812 141.689 100.193C141.945 99.5597 142.295 99.021 142.739 98.5766C143.183 98.1322 143.709 97.7888 144.315 97.5464C144.921 97.2905 145.574 97.1626 146.274 97.1626C146.974 97.1626 147.607 97.2771 148.173 97.506C148.752 97.7349 149.237 98.0649 149.627 98.4958C150.031 98.9267 150.341 99.4519 150.556 100.071C150.772 100.677 150.88 101.364 150.88 102.132ZM148.961 101.364C148.947 100.987 148.88 100.637 148.759 100.314C148.651 99.9771 148.483 99.6876 148.254 99.4452C148.038 99.2028 147.762 99.0143 147.425 98.8796C147.102 98.7315 146.718 98.6574 146.274 98.6574C145.87 98.6574 145.486 98.7315 145.123 98.8796C144.773 99.0143 144.463 99.2028 144.193 99.4452C143.938 99.6876 143.722 99.9771 143.547 100.314C143.385 100.637 143.291 100.987 143.264 101.364H148.961ZM155.248 97.4252C155.275 97.6676 155.295 97.9437 155.308 98.2534C155.322 98.5497 155.329 98.7988 155.329 99.0008H155.389C155.51 98.7449 155.672 98.5093 155.874 98.2938C156.089 98.0649 156.332 97.8696 156.601 97.708C156.87 97.5329 157.167 97.3983 157.49 97.304C157.813 97.2097 158.15 97.1626 158.5 97.1626C159.119 97.1626 159.651 97.2703 160.096 97.4858C160.54 97.6878 160.91 97.9639 161.207 98.314C161.503 98.6641 161.718 99.0749 161.853 99.5462C162.001 100.018 162.075 100.523 162.075 101.061V107H160.177V101.687C160.177 101.297 160.143 100.927 160.076 100.576C160.022 100.226 159.914 99.9165 159.752 99.6472C159.591 99.3779 159.369 99.1624 159.086 99.0008C158.803 98.8392 158.439 98.7584 157.995 98.7584C157.241 98.7584 156.621 99.0479 156.137 99.627C155.665 100.193 155.43 100.953 155.43 101.91V107H153.531V99.4856C153.531 99.2297 153.524 98.8998 153.511 98.4958C153.497 98.0918 153.477 97.7349 153.45 97.4252H155.248ZM169.777 98.9806H167.232V103.97C167.232 104.549 167.339 104.967 167.555 105.222C167.77 105.465 168.114 105.586 168.585 105.586C168.76 105.586 168.949 105.566 169.151 105.525C169.353 105.485 169.535 105.424 169.696 105.344L169.757 106.899C169.528 106.98 169.272 107.04 168.989 107.081C168.72 107.135 168.437 107.162 168.141 107.162C167.238 107.162 166.545 106.912 166.06 106.414C165.589 105.916 165.353 105.169 165.353 104.172V98.9806H163.515V97.4252H165.353V94.678H167.232V97.4252H169.777V98.9806ZM181.293 107H179.233L175.334 97.4252H177.435L180.243 104.96H180.283L183.111 97.4252H185.131L181.293 107ZM195.896 102.132C195.896 102.24 195.896 102.347 195.896 102.455C195.896 102.563 195.889 102.67 195.875 102.778H188.28C188.294 103.182 188.381 103.566 188.543 103.93C188.718 104.28 188.947 104.589 189.23 104.859C189.512 105.115 189.836 105.317 190.199 105.465C190.576 105.613 190.974 105.687 191.391 105.687C192.037 105.687 192.596 105.546 193.068 105.263C193.539 104.98 193.909 104.637 194.179 104.233L195.512 105.303C195 105.977 194.394 106.475 193.694 106.798C193.007 107.108 192.239 107.263 191.391 107.263C190.664 107.263 189.991 107.141 189.371 106.899C188.752 106.657 188.22 106.32 187.775 105.889C187.331 105.445 186.981 104.913 186.725 104.293C186.469 103.674 186.341 102.987 186.341 102.233C186.341 101.492 186.462 100.812 186.705 100.193C186.961 99.5597 187.311 99.021 187.755 98.5766C188.199 98.1322 188.725 97.7888 189.331 97.5464C189.937 97.2905 190.59 97.1626 191.29 97.1626C191.99 97.1626 192.623 97.2771 193.189 97.506C193.768 97.7349 194.253 98.0649 194.643 98.4958C195.047 98.9267 195.357 99.4519 195.572 100.071C195.788 100.677 195.896 101.364 195.896 102.132ZM193.977 101.364C193.963 100.987 193.896 100.637 193.775 100.314C193.667 99.9771 193.499 99.6876 193.27 99.4452C193.054 99.2028 192.778 99.0143 192.441 98.8796C192.118 98.7315 191.734 98.6574 191.29 98.6574C190.886 98.6574 190.502 98.7315 190.139 98.8796C189.789 99.0143 189.479 99.2028 189.209 99.4452C188.954 99.6876 188.738 99.9771 188.563 100.314C188.401 100.637 188.307 100.987 188.28 101.364H193.977ZM198.547 99.4856C198.547 99.2297 198.54 98.8998 198.527 98.4958C198.513 98.0918 198.493 97.7349 198.466 97.4252H200.264C200.291 97.6676 200.311 97.9504 200.324 98.2736C200.338 98.5833 200.345 98.8392 200.345 99.0412H200.405C200.674 98.4756 201.065 98.0245 201.577 97.6878C202.102 97.3377 202.688 97.1626 203.334 97.1626C203.63 97.1626 203.88 97.1895 204.082 97.2434L204.001 99.0008C203.731 98.9335 203.442 98.8998 203.132 98.8998C202.674 98.8998 202.277 98.9873 201.94 99.1624C201.604 99.324 201.321 99.5462 201.092 99.829C200.876 100.112 200.715 100.442 200.607 100.819C200.499 101.182 200.446 101.566 200.446 101.97V107H198.547V99.4856ZM211.037 99.8492C210.821 99.4991 210.518 99.2163 210.128 99.0008C209.737 98.7719 209.299 98.6574 208.815 98.6574C208.599 98.6574 208.384 98.6843 208.168 98.7382C207.953 98.7786 207.757 98.8527 207.582 98.9604C207.421 99.0547 207.286 99.1826 207.178 99.3442C207.084 99.4923 207.037 99.6809 207.037 99.9098C207.037 100.314 207.219 100.617 207.582 100.819C207.946 101.007 208.491 101.182 209.219 101.344C209.676 101.452 210.101 101.58 210.491 101.728C210.882 101.876 211.218 102.064 211.501 102.293C211.797 102.509 212.026 102.771 212.188 103.081C212.35 103.391 212.43 103.755 212.43 104.172C212.43 104.738 212.323 105.216 212.107 105.606C211.892 105.997 211.602 106.32 211.239 106.576C210.888 106.818 210.484 106.993 210.027 107.101C209.569 107.209 209.097 107.263 208.613 107.263C207.885 107.263 207.172 107.121 206.471 106.838C205.785 106.556 205.212 106.125 204.754 105.546L206.108 104.394C206.364 104.771 206.714 105.088 207.158 105.344C207.616 105.599 208.114 105.727 208.653 105.727C208.895 105.727 209.124 105.707 209.34 105.667C209.569 105.613 209.771 105.532 209.946 105.424C210.134 105.317 210.282 105.175 210.39 105C210.498 104.825 210.552 104.603 210.552 104.334C210.552 103.889 210.336 103.559 209.905 103.344C209.488 103.128 208.868 102.926 208.047 102.738C207.724 102.657 207.394 102.563 207.057 102.455C206.734 102.334 206.438 102.172 206.168 101.97C205.899 101.768 205.677 101.519 205.502 101.223C205.34 100.913 205.259 100.536 205.259 100.092C205.259 99.5799 205.36 99.1422 205.562 98.7786C205.778 98.4015 206.054 98.0985 206.391 97.8696C206.727 97.6272 207.111 97.4521 207.542 97.3444C207.973 97.2232 208.417 97.1626 208.875 97.1626C209.562 97.1626 210.222 97.2973 210.855 97.5666C211.501 97.8359 211.999 98.2265 212.35 98.7382L211.037 99.8492ZM217.083 93.971C217.083 94.3211 216.955 94.6107 216.699 94.8396C216.457 95.0685 216.161 95.183 215.81 95.183C215.46 95.183 215.164 95.0685 214.922 94.8396C214.679 94.5972 214.558 94.3077 214.558 93.971C214.558 93.6209 214.679 93.3313 214.922 93.1024C215.164 92.86 215.46 92.7388 215.81 92.7388C216.161 92.7388 216.457 92.86 216.699 93.1024C216.955 93.3313 217.083 93.6209 217.083 93.971ZM216.76 107H214.861V97.4252H216.76V107ZM227.785 102.192C227.785 101.735 227.711 101.297 227.563 100.879C227.428 100.462 227.226 100.098 226.957 99.7886C226.687 99.4654 226.351 99.2095 225.947 99.021C225.556 98.8325 225.105 98.7382 224.593 98.7382C224.082 98.7382 223.624 98.8325 223.22 99.021C222.829 99.2095 222.499 99.4654 222.23 99.7886C221.961 100.098 221.752 100.462 221.604 100.879C221.469 101.297 221.402 101.735 221.402 102.192C221.402 102.65 221.469 103.088 221.604 103.505C221.752 103.923 221.961 104.293 222.23 104.616C222.499 104.94 222.829 105.195 223.22 105.384C223.624 105.573 224.082 105.667 224.593 105.667C225.105 105.667 225.556 105.573 225.947 105.384C226.351 105.195 226.687 104.94 226.957 104.616C227.226 104.293 227.428 103.923 227.563 103.505C227.711 103.088 227.785 102.65 227.785 102.192ZM229.764 102.192C229.764 102.933 229.63 103.613 229.36 104.233C229.105 104.852 228.741 105.391 228.27 105.849C227.812 106.293 227.266 106.643 226.633 106.899C226.001 107.141 225.32 107.263 224.593 107.263C223.866 107.263 223.186 107.141 222.553 106.899C221.92 106.643 221.375 106.293 220.917 105.849C220.459 105.391 220.095 104.852 219.826 104.233C219.57 103.613 219.442 102.933 219.442 102.192C219.442 101.452 219.57 100.778 219.826 100.172C220.095 99.5529 220.459 99.021 220.917 98.5766C221.375 98.1322 221.92 97.7888 222.553 97.5464C223.186 97.2905 223.866 97.1626 224.593 97.1626C225.32 97.1626 226.001 97.2905 226.633 97.5464C227.266 97.7888 227.812 98.1322 228.27 98.5766C228.741 99.021 229.105 99.5529 229.36 100.172C229.63 100.778 229.764 101.452 229.764 102.192ZM234.115 97.4252C234.141 97.6676 234.162 97.9437 234.175 98.2534C234.189 98.5497 234.195 98.7988 234.195 99.0008H234.256C234.377 98.7449 234.539 98.5093 234.741 98.2938C234.956 98.0649 235.199 97.8696 235.468 97.708C235.737 97.5329 236.034 97.3983 236.357 97.304C236.68 97.2097 237.017 97.1626 237.367 97.1626C237.986 97.1626 238.518 97.2703 238.963 97.4858C239.407 97.6878 239.777 97.9639 240.074 98.314C240.37 98.6641 240.585 99.0749 240.72 99.5462C240.868 100.018 240.942 100.523 240.942 101.061V107H239.043V101.687C239.043 101.297 239.01 100.927 238.942 100.576C238.888 100.226 238.781 99.9165 238.619 99.6472C238.458 99.3779 238.235 99.1624 237.953 99.0008C237.67 98.8392 237.306 98.7584 236.862 98.7584C236.108 98.7584 235.488 99.0479 235.003 99.627C234.532 100.193 234.296 100.953 234.296 101.91V107H232.398V99.4856C232.398 99.2297 232.391 98.8998 232.377 98.4958C232.364 98.0918 232.344 97.7349 232.317 97.4252H234.115ZM249.326 99.8492C249.11 99.4991 248.807 99.2163 248.417 99.0008C248.026 98.7719 247.589 98.6574 247.104 98.6574C246.888 98.6574 246.673 98.6843 246.457 98.7382C246.242 98.7786 246.047 98.8527 245.872 98.9604C245.71 99.0547 245.575 99.1826 245.468 99.3442C245.373 99.4923 245.326 99.6809 245.326 99.9098C245.326 100.314 245.508 100.617 245.872 100.819C246.235 101.007 246.781 101.182 247.508 101.344C247.966 101.452 248.39 101.58 248.78 101.728C249.171 101.876 249.508 102.064 249.79 102.293C250.087 102.509 250.316 102.771 250.477 103.081C250.639 103.391 250.72 103.755 250.72 104.172C250.72 104.738 250.612 105.216 250.396 105.606C250.181 105.997 249.891 106.32 249.528 106.576C249.178 106.818 248.774 106.993 248.316 107.101C247.858 107.209 247.387 107.263 246.902 107.263C246.175 107.263 245.461 107.121 244.761 106.838C244.074 106.556 243.501 106.125 243.044 105.546L244.397 104.394C244.653 104.771 245.003 105.088 245.447 105.344C245.905 105.599 246.404 105.727 246.942 105.727C247.185 105.727 247.414 105.707 247.629 105.667C247.858 105.613 248.06 105.532 248.235 105.424C248.424 105.317 248.572 105.175 248.679 105C248.787 104.825 248.841 104.603 248.841 104.334C248.841 103.889 248.626 103.559 248.195 103.344C247.777 103.128 247.158 102.926 246.336 102.738C246.013 102.657 245.683 102.563 245.346 102.455C245.023 102.334 244.727 102.172 244.458 101.97C244.188 101.768 243.966 101.519 243.791 101.223C243.629 100.913 243.549 100.536 243.549 100.092C243.549 99.5799 243.65 99.1422 243.852 98.7786C244.067 98.4015 244.343 98.0985 244.68 97.8696C245.016 97.6272 245.4 97.4521 245.831 97.3444C246.262 97.2232 246.707 97.1626 247.164 97.1626C247.851 97.1626 248.511 97.2973 249.144 97.5666C249.79 97.8359 250.289 98.2265 250.639 98.7382L249.326 99.8492ZM265.897 102.192C265.897 101.735 265.822 101.297 265.674 100.879C265.54 100.462 265.338 100.098 265.068 99.7886C264.799 99.4654 264.462 99.2095 264.058 99.021C263.668 98.8325 263.217 98.7382 262.705 98.7382C262.193 98.7382 261.735 98.8325 261.331 99.021C260.941 99.2095 260.611 99.4654 260.342 99.7886C260.072 100.098 259.863 100.462 259.715 100.879C259.581 101.297 259.513 101.735 259.513 102.192C259.513 102.65 259.581 103.088 259.715 103.505C259.863 103.923 260.072 104.293 260.342 104.616C260.611 104.94 260.941 105.195 261.331 105.384C261.735 105.573 262.193 105.667 262.705 105.667C263.217 105.667 263.668 105.573 264.058 105.384C264.462 105.195 264.799 104.94 265.068 104.616C265.338 104.293 265.54 103.923 265.674 103.505C265.822 103.088 265.897 102.65 265.897 102.192ZM267.876 102.192C267.876 102.933 267.741 103.613 267.472 104.233C267.216 104.852 266.853 105.391 266.381 105.849C265.923 106.293 265.378 106.643 264.745 106.899C264.112 107.141 263.432 107.263 262.705 107.263C261.978 107.263 261.298 107.141 260.665 106.899C260.032 106.643 259.486 106.293 259.029 105.849C258.571 105.391 258.207 104.852 257.938 104.233C257.682 103.613 257.554 102.933 257.554 102.192C257.554 101.452 257.682 100.778 257.938 100.172C258.207 99.5529 258.571 99.021 259.029 98.5766C259.486 98.1322 260.032 97.7888 260.665 97.5464C261.298 97.2905 261.978 97.1626 262.705 97.1626C263.432 97.1626 264.112 97.2905 264.745 97.5464C265.378 97.7888 265.923 98.1322 266.381 98.5766C266.853 99.021 267.216 99.5529 267.472 100.172C267.741 100.778 267.876 101.452 267.876 102.192ZM275.014 98.9806H272.792V107H270.893V98.9806H268.994V97.4252H270.893V95.4254C270.893 94.8598 270.954 94.3413 271.075 93.87C271.21 93.3852 271.418 92.9677 271.701 92.6176C271.997 92.2675 272.368 91.9914 272.812 91.7894C273.27 91.5874 273.822 91.4864 274.468 91.4864C274.926 91.4864 275.324 91.5335 275.66 91.6278L275.438 93.264C275.29 93.2236 275.142 93.1899 274.994 93.163C274.846 93.1361 274.677 93.1226 274.489 93.1226C274.125 93.1226 273.829 93.1899 273.6 93.3246C273.384 93.4458 273.216 93.6141 273.095 93.8296C272.974 94.0451 272.893 94.2942 272.852 94.577C272.812 94.8463 272.792 95.1291 272.792 95.4254V97.4252H275.014V98.9806ZM285.942 104.94H285.982L288.628 97.4252H290.648L286.002 109.262C285.841 109.666 285.666 110.023 285.477 110.333C285.289 110.656 285.066 110.926 284.811 111.141C284.555 111.37 284.252 111.545 283.902 111.666C283.565 111.787 283.161 111.848 282.69 111.848C282.488 111.848 282.279 111.835 282.063 111.808C281.861 111.794 281.653 111.76 281.437 111.707L281.619 110.03C281.942 110.138 282.259 110.192 282.568 110.192C283.067 110.192 283.437 110.05 283.679 109.767C283.922 109.498 284.144 109.108 284.346 108.596L284.952 107L280.851 97.4252H282.972L285.942 104.94ZM300.201 102.192C300.201 101.735 300.127 101.297 299.979 100.879C299.844 100.462 299.642 100.098 299.373 99.7886C299.104 99.4654 298.767 99.2095 298.363 99.021C297.972 98.8325 297.521 98.7382 297.009 98.7382C296.498 98.7382 296.04 98.8325 295.636 99.021C295.245 99.2095 294.915 99.4654 294.646 99.7886C294.377 100.098 294.168 100.462 294.02 100.879C293.885 101.297 293.818 101.735 293.818 102.192C293.818 102.65 293.885 103.088 294.02 103.505C294.168 103.923 294.377 104.293 294.646 104.616C294.915 104.94 295.245 105.195 295.636 105.384C296.04 105.573 296.498 105.667 297.009 105.667C297.521 105.667 297.972 105.573 298.363 105.384C298.767 105.195 299.104 104.94 299.373 104.616C299.642 104.293 299.844 103.923 299.979 103.505C300.127 103.088 300.201 102.65 300.201 102.192ZM302.181 102.192C302.181 102.933 302.046 103.613 301.777 104.233C301.521 104.852 301.157 105.391 300.686 105.849C300.228 106.293 299.683 106.643 299.05 106.899C298.417 107.141 297.737 107.263 297.009 107.263C296.282 107.263 295.602 107.141 294.969 106.899C294.336 106.643 293.791 106.293 293.333 105.849C292.875 105.391 292.512 104.852 292.242 104.233C291.986 103.613 291.858 102.933 291.858 102.192C291.858 101.452 291.986 100.778 292.242 100.172C292.512 99.5529 292.875 99.021 293.333 98.5766C293.791 98.1322 294.336 97.7888 294.969 97.5464C295.602 97.2905 296.282 97.1626 297.009 97.1626C297.737 97.1626 298.417 97.2905 299.05 97.5464C299.683 97.7888 300.228 98.1322 300.686 98.5766C301.157 99.021 301.521 99.5529 301.777 100.172C302.046 100.778 302.181 101.452 302.181 102.192ZM311.561 107C311.534 106.758 311.513 106.488 311.5 106.192C311.486 105.882 311.48 105.626 311.48 105.424H311.439C311.197 105.936 310.786 106.374 310.207 106.737C309.642 107.088 309.009 107.263 308.308 107.263C307.689 107.263 307.15 107.162 306.692 106.96C306.248 106.758 305.878 106.482 305.581 106.131C305.299 105.768 305.083 105.35 304.935 104.879C304.8 104.408 304.733 103.903 304.733 103.364V97.4252H306.632V102.718C306.632 103.108 306.659 103.485 306.713 103.849C306.78 104.199 306.894 104.509 307.056 104.778C307.218 105.047 307.44 105.263 307.723 105.424C308.005 105.586 308.369 105.667 308.813 105.667C309.581 105.667 310.2 105.384 310.672 104.818C311.143 104.239 311.379 103.472 311.379 102.516V97.4252H313.278V104.94C313.278 105.195 313.284 105.525 313.298 105.929C313.311 106.333 313.331 106.69 313.358 107H311.561ZM316.571 99.4856C316.571 99.2297 316.564 98.8998 316.551 98.4958C316.537 98.0918 316.517 97.7349 316.49 97.4252H318.288C318.315 97.6676 318.335 97.9504 318.348 98.2736C318.362 98.5833 318.369 98.8392 318.369 99.0412H318.429C318.699 98.4756 319.089 98.0245 319.601 97.6878C320.126 97.3377 320.712 97.1626 321.358 97.1626C321.654 97.1626 321.904 97.1895 322.106 97.2434L322.025 99.0008C321.755 98.9335 321.466 98.8998 321.156 98.8998C320.698 98.8998 320.301 98.9873 319.964 99.1624C319.628 99.324 319.345 99.5462 319.116 99.829C318.901 100.112 318.739 100.442 318.631 100.819C318.523 101.182 318.47 101.566 318.47 101.97V107H316.571V99.4856ZM331.04 107H329.04V92.6984H337.969V94.4558H331.04V98.8998H337.524V100.617H331.04V107ZM342.307 93.971C342.307 94.3211 342.179 94.6107 341.924 94.8396C341.681 95.0685 341.385 95.183 341.035 95.183C340.685 95.183 340.388 95.0685 340.146 94.8396C339.904 94.5972 339.782 94.3077 339.782 93.971C339.782 93.6209 339.904 93.3313 340.146 93.1024C340.388 92.86 340.685 92.7388 341.035 92.7388C341.385 92.7388 341.681 92.86 341.924 93.1024C342.179 93.3313 342.307 93.6209 342.307 93.971ZM341.984 107H340.085V97.4252H341.984V107ZM346.626 102.112C346.626 102.556 346.693 102.98 346.828 103.384C346.976 103.788 347.185 104.145 347.454 104.455C347.737 104.765 348.074 105.014 348.464 105.202C348.855 105.391 349.299 105.485 349.797 105.485C350.282 105.485 350.726 105.397 351.13 105.222C351.534 105.047 351.878 104.812 352.161 104.515C352.443 104.206 352.659 103.849 352.807 103.445C352.969 103.027 353.049 102.583 353.049 102.112C353.049 101.654 352.969 101.223 352.807 100.819C352.659 100.415 352.437 100.058 352.14 99.7482C351.858 99.4385 351.514 99.1961 351.11 99.021C350.72 98.8325 350.282 98.7382 349.797 98.7382C349.299 98.7382 348.855 98.8325 348.464 99.021C348.074 99.1961 347.737 99.4385 347.454 99.7482C347.185 100.044 346.976 100.401 346.828 100.819C346.693 101.223 346.626 101.654 346.626 102.112ZM346.04 108.636C346.458 109.108 346.976 109.485 347.595 109.767C348.228 110.05 348.875 110.192 349.535 110.192C350.168 110.192 350.7 110.097 351.13 109.909C351.561 109.734 351.905 109.485 352.161 109.161C352.43 108.852 352.619 108.481 352.726 108.05C352.847 107.619 352.908 107.155 352.908 106.657V105.424H352.868C352.518 105.963 352.039 106.374 351.433 106.657C350.827 106.939 350.181 107.081 349.494 107.081C348.767 107.081 348.1 106.953 347.494 106.697C346.902 106.441 346.397 106.091 345.979 105.647C345.562 105.202 345.239 104.684 345.01 104.091C344.781 103.485 344.666 102.839 344.666 102.152C344.666 101.465 344.781 100.819 345.01 100.213C345.239 99.6068 345.562 99.0816 345.979 98.6372C346.397 98.1793 346.902 97.8225 347.494 97.5666C348.087 97.2973 348.747 97.1626 349.474 97.1626C350.161 97.1626 350.814 97.3107 351.433 97.607C352.066 97.9033 352.565 98.3544 352.928 98.9604H352.969V97.4252H354.807V106.515C354.807 107.215 354.719 107.882 354.544 108.515C354.369 109.161 354.073 109.727 353.655 110.212C353.238 110.71 352.693 111.107 352.019 111.404C351.346 111.7 350.511 111.848 349.514 111.848C348.68 111.848 347.838 111.693 346.989 111.383C346.155 111.087 345.434 110.663 344.828 110.111L346.04 108.636ZM359.914 99.0008C360.157 98.4891 360.54 98.0581 361.066 97.708C361.604 97.3444 362.237 97.1626 362.964 97.1626C363.611 97.1626 364.19 97.3107 364.702 97.607C365.227 97.9033 365.637 98.3948 365.934 99.0816C366.257 98.4621 366.708 97.9908 367.287 97.6676C367.866 97.3309 368.499 97.1626 369.186 97.1626C369.805 97.1626 370.337 97.2703 370.782 97.4858C371.226 97.6878 371.596 97.9639 371.893 98.314C372.189 98.6641 372.404 99.0749 372.539 99.5462C372.687 100.018 372.761 100.523 372.761 101.061V107H370.863V101.687C370.863 101.297 370.829 100.927 370.762 100.576C370.694 100.226 370.58 99.9165 370.418 99.6472C370.257 99.3779 370.041 99.1624 369.772 99.0008C369.502 98.8392 369.159 98.7584 368.742 98.7584C368.311 98.7584 367.94 98.8527 367.631 99.0412C367.321 99.2163 367.065 99.4519 366.863 99.7482C366.674 100.031 366.533 100.354 366.439 100.718C366.358 101.081 366.318 101.452 366.318 101.829V107H364.419V101.304C364.419 100.927 364.385 100.583 364.318 100.273C364.25 99.9637 364.136 99.7011 363.974 99.4856C363.813 99.2567 363.604 99.0816 363.348 98.9604C363.092 98.8257 362.776 98.7584 362.399 98.7584C361.698 98.7584 361.113 99.0479 360.641 99.627C360.183 100.193 359.955 100.953 359.955 101.91V107H358.056V99.4856C358.056 99.2297 358.049 98.8998 358.036 98.4958C358.022 98.0918 358.002 97.7349 357.975 97.4252H359.773C359.8 97.6676 359.82 97.9437 359.833 98.2534C359.847 98.5497 359.854 98.7988 359.854 99.0008H359.914ZM381.462 102.435C380.991 102.435 380.499 102.455 379.987 102.495C379.489 102.536 379.031 102.617 378.614 102.738C378.21 102.859 377.873 103.041 377.604 103.283C377.334 103.526 377.2 103.849 377.2 104.253C377.2 104.536 377.254 104.771 377.361 104.96C377.482 105.148 377.637 105.303 377.826 105.424C378.014 105.546 378.223 105.633 378.452 105.687C378.681 105.727 378.917 105.748 379.159 105.748C380.048 105.748 380.728 105.485 381.199 104.96C381.684 104.421 381.926 103.748 381.926 102.94V102.435H381.462ZM381.926 100.799C381.926 100.085 381.711 99.5597 381.28 99.223C380.849 98.8729 380.277 98.6978 379.563 98.6978C379.024 98.6978 378.513 98.8055 378.028 99.021C377.557 99.223 377.159 99.4856 376.836 99.8088L375.826 98.5968C376.297 98.1524 376.87 97.8023 377.543 97.5464C378.23 97.2905 378.964 97.1626 379.745 97.1626C380.432 97.1626 381.024 97.2636 381.522 97.4656C382.034 97.6541 382.452 97.9167 382.775 98.2534C383.098 98.5901 383.34 98.9873 383.502 99.4452C383.664 99.9031 383.744 100.395 383.744 100.92V105.101C383.744 105.424 383.751 105.768 383.765 106.131C383.792 106.482 383.832 106.771 383.886 107H382.169C382.061 106.542 382.007 106.084 382.007 105.626H381.947C381.597 106.138 381.152 106.535 380.613 106.818C380.088 107.101 379.462 107.242 378.735 107.242C378.358 107.242 377.961 107.189 377.543 107.081C377.139 106.987 376.769 106.825 376.432 106.596C376.095 106.367 375.813 106.064 375.584 105.687C375.368 105.31 375.26 104.845 375.26 104.293C375.26 103.566 375.456 102.994 375.846 102.576C376.237 102.145 376.749 101.822 377.381 101.607C378.014 101.378 378.728 101.23 379.523 101.162C380.317 101.095 381.118 101.061 381.926 101.061V100.799ZM396.47 98.9806H394.248V107H392.349V98.9806H390.451V97.4252H392.349V95.4254C392.349 94.8598 392.41 94.3413 392.531 93.87C392.666 93.3852 392.875 92.9677 393.157 92.6176C393.454 92.2675 393.824 91.9914 394.268 91.7894C394.726 91.5874 395.278 91.4864 395.925 91.4864C396.383 91.4864 396.78 91.5335 397.117 91.6278L396.894 93.264C396.746 93.2236 396.598 93.1899 396.45 93.163C396.302 93.1361 396.134 93.1226 395.945 93.1226C395.581 93.1226 395.285 93.1899 395.056 93.3246C394.841 93.4458 394.672 93.6141 394.551 93.8296C394.43 94.0451 394.349 94.2942 394.309 94.577C394.268 94.8463 394.248 95.1291 394.248 95.4254V97.4252H396.47V98.9806ZM400.571 93.971C400.571 94.3211 400.443 94.6107 400.187 94.8396C399.945 95.0685 399.648 95.183 399.298 95.183C398.948 95.183 398.652 95.0685 398.409 94.8396C398.167 94.5972 398.046 94.3077 398.046 93.971C398.046 93.6209 398.167 93.3313 398.409 93.1024C398.652 92.86 398.948 92.7388 399.298 92.7388C399.648 92.7388 399.945 92.86 400.187 93.1024C400.443 93.3313 400.571 93.6209 400.571 93.971ZM400.248 107H398.349V97.4252H400.248V107ZM405.504 107H403.605V91.7288H405.504V107ZM417.741 102.132C417.741 102.24 417.741 102.347 417.741 102.455C417.741 102.563 417.734 102.67 417.72 102.778H410.125C410.139 103.182 410.226 103.566 410.388 103.93C410.563 104.28 410.792 104.589 411.075 104.859C411.357 105.115 411.681 105.317 412.044 105.465C412.421 105.613 412.819 105.687 413.236 105.687C413.882 105.687 414.441 105.546 414.913 105.263C415.384 104.98 415.754 104.637 416.024 104.233L417.357 105.303C416.845 105.977 416.239 106.475 415.539 106.798C414.852 107.108 414.084 107.263 413.236 107.263C412.509 107.263 411.835 107.141 411.216 106.899C410.597 106.657 410.065 106.32 409.62 105.889C409.176 105.445 408.826 104.913 408.57 104.293C408.314 103.674 408.186 102.987 408.186 102.233C408.186 101.492 408.307 100.812 408.55 100.193C408.805 99.5597 409.156 99.021 409.6 98.5766C410.044 98.1322 410.57 97.7888 411.176 97.5464C411.782 97.2905 412.435 97.1626 413.135 97.1626C413.835 97.1626 414.468 97.2771 415.034 97.506C415.613 97.7349 416.098 98.0649 416.488 98.4958C416.892 98.9267 417.202 99.4519 417.417 100.071C417.633 100.677 417.741 101.364 417.741 102.132ZM415.822 101.364C415.808 100.987 415.741 100.637 415.62 100.314C415.512 99.9771 415.344 99.6876 415.115 99.4452C414.899 99.2028 414.623 99.0143 414.286 98.8796C413.963 98.7315 413.579 98.6574 413.135 98.6574C412.731 98.6574 412.347 98.7315 411.984 98.8796C411.633 99.0143 411.324 99.2028 411.054 99.4452C410.799 99.6876 410.583 99.9771 410.408 100.314C410.246 100.637 410.152 100.987 410.125 101.364H415.822Z" />
        <path id="history"
            d="M220.696 31.384C222.701 31.384 224.408 31.7467 225.816 32.472C227.267 33.1547 228.44 34.072 229.336 35.224C230.275 36.376 230.957 37.6987 231.384 39.192C231.811 40.6853 232.024 42.2213 232.024 43.8V63H224.344V46.104C224.344 45.208 224.28 44.2907 224.152 43.352C224.024 42.3707 223.747 41.496 223.32 40.728C222.936 39.9173 222.36 39.256 221.592 38.744C220.867 38.232 219.885 37.976 218.648 37.976C217.411 37.976 216.344 38.2107 215.448 38.68C214.552 39.1493 213.805 39.7893 213.208 40.6C212.611 41.368 212.163 42.2427 211.864 43.224C211.565 44.2053 211.416 45.208 211.416 46.232V63H203.736V14.616H211.416V36.568H211.544C211.843 35.928 212.269 35.3093 212.824 34.712C213.421 34.072 214.104 33.5173 214.872 33.048C215.64 32.536 216.515 32.1307 217.496 31.832C218.477 31.5333 219.544 31.384 220.696 31.384ZM240.023 21.848C240.023 20.6107 240.471 19.544 241.367 18.648C242.306 17.7093 243.479 17.24 244.887 17.24C246.295 17.24 247.468 17.688 248.407 18.584C249.388 19.4373 249.879 20.5253 249.879 21.848C249.879 23.1707 249.388 24.28 248.407 25.176C247.468 26.0293 246.295 26.456 244.887 26.456C243.479 26.456 242.306 26.008 241.367 25.112C240.471 24.1733 240.023 23.0853 240.023 21.848ZM241.111 32.28H248.791V63H241.111V32.28ZM274.94 40.472C274.257 39.576 273.319 38.808 272.124 38.168C270.929 37.4853 269.628 37.144 268.22 37.144C266.983 37.144 265.852 37.4 264.828 37.912C263.804 38.424 263.292 39.2773 263.292 40.472C263.292 41.6667 263.847 42.52 264.956 43.032C266.108 43.5013 267.772 43.992 269.948 44.504C271.1 44.76 272.252 45.1013 273.404 45.528C274.599 45.9547 275.665 46.5307 276.604 47.256C277.585 47.9387 278.375 48.8133 278.972 49.88C279.569 50.904 279.868 52.1627 279.868 53.656C279.868 55.5333 279.505 57.1333 278.78 58.456C278.097 59.736 277.159 60.7813 275.964 61.592C274.812 62.4027 273.447 62.9787 271.868 63.32C270.332 63.704 268.732 63.896 267.068 63.896C264.679 63.896 262.353 63.4693 260.092 62.616C257.831 61.72 255.953 60.4613 254.46 58.84L259.516 54.104C260.369 55.2133 261.479 56.1307 262.844 56.856C264.209 57.5813 265.724 57.944 267.388 57.944C267.943 57.944 268.497 57.88 269.052 57.752C269.649 57.624 270.183 57.432 270.652 57.176C271.164 56.8773 271.569 56.4933 271.868 56.024C272.167 55.5547 272.316 54.9787 272.316 54.296C272.316 53.016 271.719 52.0987 270.524 51.544C269.372 50.9893 267.623 50.4347 265.276 49.88C264.124 49.624 262.993 49.304 261.884 48.92C260.817 48.4933 259.857 47.96 259.004 47.32C258.151 46.6373 257.468 45.8053 256.956 44.824C256.444 43.8427 256.188 42.6267 256.188 41.176C256.188 39.4693 256.529 37.9973 257.212 36.76C257.937 35.5227 258.876 34.52 260.028 33.752C261.18 32.9413 262.481 32.344 263.932 31.96C265.383 31.576 266.876 31.384 268.412 31.384C270.631 31.384 272.785 31.768 274.876 32.536C277.009 33.304 278.695 34.4773 279.932 36.056L274.94 40.472ZM282.13 38.424V32.28H287.506V23.384H295.058V32.28H302.738V38.424H295.058V52.696C295.058 54.0613 295.292 55.192 295.762 56.088C296.274 56.984 297.383 57.432 299.09 57.432C299.602 57.432 300.156 57.3893 300.753 57.304C301.351 57.176 301.884 57.0053 302.354 56.792L302.61 62.808C301.927 63.064 301.116 63.256 300.178 63.384C299.239 63.5547 298.343 63.64 297.49 63.64C295.442 63.64 293.778 63.3627 292.498 62.808C291.218 62.2107 290.194 61.4213 289.426 60.44C288.7 59.416 288.188 58.264 287.89 56.984C287.634 55.6613 287.506 54.2533 287.506 52.76V38.424H282.13ZM314.312 47.512C314.312 48.7067 314.482 49.9013 314.824 51.096C315.208 52.2907 315.762 53.3573 316.488 54.296C317.213 55.2347 318.13 56.0027 319.24 56.6C320.349 57.1973 321.672 57.496 323.208 57.496C324.744 57.496 326.066 57.1973 327.176 56.6C328.285 56.0027 329.202 55.2347 329.928 54.296C330.653 53.3573 331.186 52.2907 331.528 51.096C331.912 49.9013 332.104 48.7067 332.104 47.512C332.104 46.3173 331.912 45.144 331.528 43.992C331.186 42.7973 330.653 41.7307 329.928 40.792C329.202 39.8533 328.285 39.1067 327.176 38.552C326.066 37.9547 324.744 37.656 323.208 37.656C321.672 37.656 320.349 37.9547 319.24 38.552C318.13 39.1067 317.213 39.8533 316.488 40.792C315.762 41.7307 315.208 42.7973 314.824 43.992C314.482 45.144 314.312 46.3173 314.312 47.512ZM306.504 47.512C306.504 45.08 306.93 42.8827 307.784 40.92C308.68 38.9147 309.874 37.208 311.368 35.8C312.861 34.392 314.632 33.304 316.68 32.536C318.728 31.768 320.904 31.384 323.208 31.384C325.512 31.384 327.688 31.768 329.736 32.536C331.784 33.304 333.554 34.392 335.048 35.8C336.541 37.208 337.714 38.9147 338.568 40.92C339.464 42.8827 339.912 45.08 339.912 47.512C339.912 49.944 339.464 52.1627 338.568 54.168C337.714 56.1733 336.541 57.9013 335.048 59.352C333.554 60.76 331.784 61.8693 329.736 62.68C327.688 63.4907 325.512 63.896 323.208 63.896C320.904 63.896 318.728 63.4907 316.68 62.68C314.632 61.8693 312.861 60.76 311.368 59.352C309.874 57.9013 308.68 56.1733 307.784 54.168C306.93 52.1627 306.504 49.944 306.504 47.512ZM347.358 32.28H354.718V37.4H354.846C355.699 35.608 356.894 34.1573 358.43 33.048C359.966 31.9387 361.758 31.384 363.806 31.384C364.105 31.384 364.425 31.4053 364.766 31.448C365.107 31.448 365.406 31.4907 365.662 31.576V38.616C365.15 38.488 364.702 38.4027 364.318 38.36C363.977 38.3173 363.635 38.296 363.294 38.296C361.545 38.296 360.137 38.616 359.07 39.256C358.003 39.896 357.171 40.664 356.574 41.56C355.977 42.456 355.571 43.3733 355.358 44.312C355.145 45.2507 355.038 45.9973 355.038 46.552V63H347.358V32.28ZM366.062 32.28H374.575L383.151 54.616H383.279L390.895 32.28H398.895L384.367 69.592C383.812 71 383.215 72.2373 382.575 73.304C381.935 74.4133 381.167 75.3307 380.271 76.056C379.375 76.824 378.308 77.4 377.071 77.784C375.876 78.168 374.425 78.36 372.719 78.36C372.079 78.36 371.417 78.3173 370.735 78.232C370.095 78.1893 369.433 78.0827 368.751 77.912L369.391 71.256C369.903 71.4267 370.393 71.5333 370.863 71.576C371.375 71.6613 371.844 71.704 372.271 71.704C373.081 71.704 373.764 71.5973 374.319 71.384C374.873 71.2133 375.343 70.9147 375.727 70.488C376.111 70.104 376.452 69.6133 376.751 69.016C377.049 68.4187 377.369 67.7147 377.711 66.904L379.247 63L366.062 32.28Z" />
        <path id="figma"
            d="M4.992 17.688H34.24V24.728H13.056V37.144H33.024V43.928H13.056V63H4.992V17.688ZM39.2105 21.848C39.2105 20.6107 39.6585 19.544 40.5545 18.648C41.4932 17.7093 42.6665 17.24 44.0745 17.24C45.4825 17.24 46.6558 17.688 47.5945 18.584C48.5758 19.4373 49.0665 20.5253 49.0665 21.848C49.0665 23.1707 48.5758 24.28 47.5945 25.176C46.6558 26.0293 45.4825 26.456 44.0745 26.456C42.6665 26.456 41.4932 26.008 40.5545 25.112C39.6585 24.1733 39.2105 23.0853 39.2105 21.848ZM40.2985 32.28H47.9785V63H40.2985V32.28ZM72.1435 37.656C70.7355 37.656 69.4768 37.912 68.3675 38.424C67.3008 38.936 66.3835 39.64 65.6155 40.536C64.8902 41.3893 64.3142 42.4133 63.8875 43.608C63.5035 44.8027 63.3115 46.0827 63.3115 47.448C63.3115 48.6853 63.5035 49.88 63.8875 51.032C64.3142 52.184 64.8902 53.2293 65.6155 54.168C66.3835 55.064 67.3008 55.7893 68.3675 56.344C69.4768 56.8987 70.7142 57.176 72.0795 57.176C73.4875 57.176 74.7462 56.92 75.8555 56.408C77.0075 55.8533 77.9675 55.128 78.7355 54.232C79.5462 53.336 80.1648 52.312 80.5915 51.16C81.0182 49.9653 81.2315 48.728 81.2315 47.448C81.2315 46.1253 81.0182 44.8667 80.5915 43.672C80.1648 42.4773 79.5462 41.432 78.7355 40.536C77.9675 39.64 77.0288 38.936 75.9195 38.424C74.8102 37.912 73.5515 37.656 72.1435 37.656ZM88.5275 32.28V60.248C88.5275 63.0213 88.1862 65.5173 87.5035 67.736C86.8208 69.9973 85.7542 71.896 84.3035 73.432C82.8955 75.0107 81.1035 76.2267 78.9275 77.08C76.7515 77.9333 74.1702 78.36 71.1835 78.36C69.9462 78.36 68.6235 78.2533 67.2155 78.04C65.8502 77.8267 64.4848 77.5067 63.1195 77.08C61.7968 76.6533 60.5168 76.12 59.2795 75.48C58.0422 74.84 56.9328 74.1147 55.9515 73.304L60.3675 67.352C61.8608 68.76 63.5462 69.8267 65.4235 70.552C67.3008 71.32 69.1995 71.704 71.1195 71.704C72.9542 71.704 74.4902 71.4267 75.7275 70.872C77.0075 70.36 78.0102 69.6347 78.7355 68.696C79.5035 67.7573 80.0368 66.648 80.3355 65.368C80.6768 64.088 80.8475 62.68 80.8475 61.144V58.904H80.7195C79.6102 60.3973 78.1808 61.5493 76.4315 62.36C74.7248 63.128 72.8048 63.512 70.6715 63.512C68.3675 63.512 66.2768 63.0853 64.3995 62.232C62.5222 61.3787 60.9222 60.2267 59.5995 58.776C58.3195 57.3253 57.3168 55.64 56.5915 53.72C55.8662 51.7573 55.5035 49.688 55.5035 47.512C55.5035 45.2933 55.8448 43.2027 56.5275 41.24C57.2528 39.2773 58.2555 37.5707 59.5355 36.12C60.8582 34.6693 62.4368 33.5173 64.2715 32.664C66.1488 31.8107 68.2395 31.384 70.5435 31.384C72.7195 31.384 74.7462 31.832 76.6235 32.728C78.5008 33.624 79.9942 35.0107 81.1035 36.888H81.2315V32.28H88.5275ZM134.405 31.384C136.41 31.384 138.117 31.7467 139.525 32.472C140.976 33.1547 142.149 34.072 143.045 35.224C143.984 36.376 144.666 37.6987 145.093 39.192C145.52 40.6853 145.733 42.2213 145.733 43.8V63H138.053V45.976C138.053 45.08 137.989 44.1413 137.861 43.16C137.733 42.1787 137.456 41.304 137.029 40.536C136.602 39.7253 136.005 39.064 135.237 38.552C134.512 38.04 133.53 37.784 132.293 37.784C131.098 37.784 130.074 38.04 129.221 38.552C128.368 39.064 127.664 39.7253 127.109 40.536C126.554 41.3467 126.149 42.264 125.893 43.288C125.637 44.2693 125.509 45.2507 125.509 46.232V63H117.829V44.44C117.829 42.52 117.36 40.9413 116.421 39.704C115.525 38.424 114.096 37.784 112.133 37.784C110.981 37.784 109.978 38.04 109.125 38.552C108.272 39.0213 107.568 39.64 107.013 40.408C106.501 41.176 106.096 42.072 105.797 43.096C105.541 44.0773 105.413 45.08 105.413 46.104V63H97.733V32.28H105.029V37.208H105.157C105.498 36.44 105.946 35.7147 106.501 35.032C107.098 34.3493 107.781 33.7307 108.549 33.176C109.36 32.6213 110.277 32.1947 111.301 31.896C112.325 31.5547 113.456 31.384 114.693 31.384C117.082 31.384 119.066 31.9173 120.645 32.984C122.224 34.0507 123.44 35.4587 124.293 37.208C125.317 35.3307 126.682 33.9013 128.389 32.92C130.096 31.896 132.101 31.384 134.405 31.384ZM173.615 48.984H171.887C170.649 48.984 169.348 49.048 167.983 49.176C166.617 49.2613 165.359 49.496 164.207 49.88C163.055 50.2213 162.095 50.7333 161.327 51.416C160.559 52.056 160.175 52.952 160.175 54.104C160.175 54.8293 160.324 55.448 160.623 55.96C160.964 56.4293 161.391 56.8133 161.903 57.112C162.415 57.4107 162.991 57.624 163.631 57.752C164.271 57.88 164.911 57.944 165.551 57.944C168.196 57.944 170.201 57.24 171.567 55.832C172.932 54.424 173.615 52.504 173.615 50.072V48.984ZM173.743 59.096H173.551C172.783 60.4613 171.545 61.592 169.839 62.488C168.132 63.3413 166.191 63.768 164.015 63.768C162.777 63.768 161.476 63.5973 160.111 63.256C158.788 62.9573 157.551 62.4453 156.399 61.72C155.289 60.952 154.351 59.9707 153.583 58.776C152.857 57.5387 152.495 56.024 152.495 54.232C152.495 51.928 153.135 50.0933 154.415 48.728C155.737 47.3627 157.423 46.3173 159.47 45.592C161.519 44.8667 163.78 44.3973 166.255 44.184C168.772 43.928 171.225 43.8 173.615 43.8V43.032C173.615 41.112 172.911 39.704 171.503 38.808C170.137 37.8693 168.495 37.4 166.575 37.4C164.953 37.4 163.396 37.7413 161.903 38.424C160.409 39.1067 159.172 39.9387 158.191 40.92L154.223 36.248C155.972 34.6267 157.977 33.4107 160.239 32.6C162.543 31.7893 164.868 31.384 167.215 31.384C169.945 31.384 172.185 31.768 173.935 32.536C175.727 33.304 177.135 34.3067 178.159 35.544C179.183 36.7813 179.887 38.168 180.271 39.704C180.697 41.24 180.911 42.776 180.911 44.312V63H173.743V59.096Z" />

        <rect x="355" width="45" height="22" rx="4" fill="#B774FF" />
        <path
            d="M386.923 9.079L385.933 11.752H387.891L386.923 9.079ZM389.013 14.788L388.408 13.259H385.394L384.822 14.788H382.776L386.043 7H387.869L391.103 14.788H389.013Z"
            fill="white" />
        <path d="M381.33 8.606V14.788H379.449V8.606H377.249V7H383.53V8.606H381.33Z" fill="white" />
        <path d="M371.315 14.788V7H376.551V8.595H373.13V10.058H376.364V11.565H373.13V13.182H376.749V14.788H371.315Z"
            fill="white" />
        <path
            d="M368.191 12.346C368.191 12.0233 368.07 11.7997 367.828 11.675C367.586 11.5503 367.263 11.488 366.86 11.488H365.815V13.27H366.871C367.018 13.27 367.168 13.259 367.322 13.237C367.483 13.2077 367.626 13.16 367.751 13.094C367.883 13.028 367.989 12.9363 368.07 12.819C368.151 12.6943 368.191 12.5367 368.191 12.346ZM367.938 9.255C367.938 8.991 367.835 8.80033 367.63 8.683C367.432 8.55833 367.135 8.496 366.739 8.496H365.815V10.102H366.827C367.179 10.102 367.45 10.0323 367.641 9.893C367.839 9.74633 367.938 9.53367 367.938 9.255ZM370.072 12.522C370.072 12.9473 369.988 13.3067 369.819 13.6C369.65 13.886 369.427 14.117 369.148 14.293C368.869 14.469 368.55 14.5973 368.191 14.678C367.839 14.7513 367.476 14.788 367.102 14.788H364V7H367.102C367.403 7 367.711 7.033 368.026 7.099C368.341 7.15767 368.627 7.264 368.884 7.418C369.141 7.56467 369.35 7.76633 369.511 8.023C369.672 8.27967 369.753 8.606 369.753 9.002C369.753 9.43467 369.636 9.794 369.401 10.08C369.166 10.3587 368.858 10.5603 368.477 10.685V10.707C368.697 10.7437 368.902 10.8133 369.093 10.916C369.291 11.0113 369.46 11.136 369.599 11.29C369.746 11.444 369.859 11.6237 369.94 11.829C370.028 12.0343 370.072 12.2653 370.072 12.522Z"
            fill="white" />
    </g>

    <linearGradient id="history_dark_gradient" x1="199" y1="14.5" x2="408.286" y2="66.0084"
        gradientUnits="userSpaceOnUse">
        <stop stop-color="#C183FF" />
        <stop offset="1" stop-color="#E3D2FF" />
    </linearGradient>

</svg>